<?xml version="1.0" standalone="no"?>
<!DOCTYPE svg PUBLIC "-//W3C//DTD SVG 1.1//EN" "http://www.w3.org/Graphics/SVG/1.1/DTD/svg11.dtd" >
<svg xmlns="http://www.w3.org/2000/svg" xmlns:xlink="http://www.w3.org/1999/xlink" version="1.1">
<metadata></metadata>
<defs>
<font id="futurasb-bolditalicregular" horiz-adv-x="1249" >
<font-face units-per-em="2048" ascent="1638" descent="-410" />
<missing-glyph horiz-adv-x="473" />
<glyph horiz-adv-x="0" />
<glyph horiz-adv-x="682" />
<glyph unicode=" "  horiz-adv-x="473" />
<glyph unicode="&#x09;" horiz-adv-x="473" />
<glyph unicode="&#xa0;" horiz-adv-x="473" />
<glyph unicode="!" horiz-adv-x="620" d="M90 170q0 82 54.5 136t138.5 54q39 0 72.5 -14t58 -40.5t39 -61.5t14.5 -74q0 -80 -54.5 -133t-136.5 -53q-78 0 -132 54t-54 132zM160 459l143 905h346l-143 -905h-346z" />
<glyph unicode="&#x22;" horiz-adv-x="837" d="M211 819l55 545h226l-119 -545h-162zM575 819l58 545h223l-119 -545h-162z" />
<glyph unicode="#" horiz-adv-x="1320" d="M63 391l50 156h227l57 178q12 39 17.5 54.5t17.5 45.5q-16 -2 -28.5 -3t-22.5 -1h-22.5h-30.5h-127l49 156h227l123 387h176l-94 -291q-10 -35 -16.5 -51t-18.5 -49q16 2 28.5 3t23 1h23.5h32h174l123 387h176l-92 -291q-12 -39 -17.5 -54t-19.5 -46q16 2 28.5 3t22.5 1 h23.5h31.5h123l-49 -156h-223l-58 -178q-12 -39 -17 -54.5t-17 -45.5q33 4 50 4h54h127l-49 -156h-227l-125 -391h-177l95 295q10 39 16 54.5t18 45.5q-16 -2 -28 -3t-22.5 -1h-24h-31.5h-174l-123 -391h-176l94 295q12 39 17.5 54.5t19.5 45.5q-16 -2 -28.5 -3t-24 -1 h-23.5h-31h-127zM510 543q16 2 28.5 3t22.5 1h23.5h31.5h175l55 178q12 37 18 53.5t19 46.5q-16 -2 -28.5 -3t-23 -1h-23.5h-32h-174l-55 -178q-12 -39 -18.5 -54.5t-18.5 -45.5z" />
<glyph unicode="$" horiz-adv-x="1112" d="M-2 213l199 272q37 -53 64.5 -79.5t68.5 -53.5q98 -63 192 -63q59 0 97 32.5t38 86.5q0 47 -36 84q-10 10 -25.5 20t-48.5 33q-29 18 -55.5 36.5t-53.5 34.5q-121 78 -170 153t-49 179q0 117 53.5 217.5t151.5 161.5q25 14 43 24.5t39.5 17.5t49.5 11t69 11l32 188h187 l-31 -186q53 -16 89 -28.5t69 -31t69.5 -46t92.5 -75.5l-164 -254q-57 59 -123 94t-119 35t-89 -29.5t-36 -74.5q0 -37 23 -63q16 -18 28 -27q10 -8 60.5 -39t128.5 -78q102 -63 148 -142t46 -194q0 -137 -69.5 -249.5t-186.5 -165.5q-23 -10 -42 -16.5t-40.5 -11.5 t-50.5 -8t-67 -5l-35 -209h-191l35 205q-248 45 -391 233z" />
<glyph unicode="%" horiz-adv-x="1826" d="M131 995q0 78 29.5 146.5t81 119t121 79t149.5 28.5q78 0 146.5 -29.5t118.5 -80t79 -120t29 -149.5t-29 -148.5t-80 -118.5t-120.5 -79t-151.5 -29q-78 0 -145.5 30t-118 82t-80 120.5t-29.5 148.5zM365 989q0 -66 38.5 -107.5t104.5 -41.5q68 0 107.5 41t39.5 108 q0 66 -41 109t-102 43q-63 0 -105 -43t-42 -109zM412 0l921 1364h174l-919 -1364h-176zM1016 354q0 78 29.5 146.5t81 119t121 79t149.5 28.5t147.5 -29.5t118.5 -80t80 -120t29 -149.5t-29 -148.5t-80 -118.5t-122 -79t-152 -29q-78 0 -145.5 30t-118 82t-80 121.5 t-29.5 147.5zM1249 348q0 -66 41 -106.5t105 -40.5q66 0 106.5 41t40.5 106q0 68 -39.5 111t-105.5 43t-107 -42t-41 -112z" />
<glyph unicode="&#x26;" horiz-adv-x="1486" d="M57 358q0 160 111 267q53 51 109.5 78.5t154.5 52.5q-8 10 -14 22.5t-17 28.5q-18 39 -30.5 66.5t-19.5 50t-9 43t-2 45.5q0 78 28.5 141.5t82 109.5t127 70.5t163.5 24.5q88 0 160 -23.5t124 -66.5t81 -103.5t29 -134.5q0 -119 -77 -205t-241 -151l37 -37t37 -41 l104 -123q33 25 55.5 43.5t45 38.5t48 46t64.5 67l199 -209q-29 -31 -51.5 -54.5t-47 -44t-56 -43t-76.5 -53.5q12 -10 18 -16t16 -19l201 -229h-393l-94 104q-51 -35 -76 -50t-47 -25q-63 -33 -138 -49.5t-155 -16.5q-102 0 -186 27.5t-142.5 79t-90.5 125t-32 163.5z M395 383q0 -66 41 -105.5t111 -39.5q49 0 92 16t109 61q-16 10 -22.5 17.5t-20.5 23.5l-166 195q-43 -25 -71 -45.5t-44 -40t-22.5 -38.5t-6.5 -44zM633 1018q0 -18 7 -40t26 -58q6 -10 8 -15.5t5 -11.5t9.5 -16.5t16.5 -30.5q82 53 118.5 97t36.5 87q0 45 -29.5 75 t-76.5 30q-51 0 -86 -34t-35 -83z" />
<glyph unicode="'" horiz-adv-x="473" d="M211 819l55 545h226l-119 -545h-162z" />
<glyph unicode="(" horiz-adv-x="628" d="M76 387q0 168 28.5 313.5t89 274.5t154.5 247.5t227 233.5l156 -129q-227 -188 -333.5 -412.5t-106.5 -508.5q0 -350 184 -676l-170 -131q-63 100 -106 193t-71 186.5t-40 193.5t-12 215z" />
<glyph unicode=")" horiz-adv-x="628" d="M-86 -270q225 186 332.5 411.5t107.5 509.5q0 350 -186 676l172 129q63 -100 106 -192.5t71 -186.5t40 -193.5t12 -213.5q0 -170 -28.5 -314.5t-89 -274.5t-155.5 -248t-228 -234z" />
<glyph unicode="*" horiz-adv-x="1013" d="M145 872l129 46q25 8 40.5 14t28.5 10t28.5 8t38.5 11v4l-31.5 21t-25 18.5t-26 19.5t-34.5 29l-109 88l117 139l107 -84q18 -16 31.5 -26.5t24.5 -19.5t22.5 -19.5t27.5 -26.5l4 2q2 23 3 38t3 28.5t4 30t7 40.5l20 131l188 -31l-20 -131q-6 -37 -11 -63.5t-16 -73.5 q45 18 71 27.5t58 21.5l125 41l68 -172l-131 -43q-25 -8 -41.5 -13t-30.5 -8t-29.5 -7t-37.5 -9v-6l31.5 -21t25.5 -17.5t24.5 -18.5t30.5 -25l103 -84l-123 -143l-99 80q-35 27 -51 41t-45 43l-6 -2q-2 -23 -3 -37t-2 -27.5t-3 -29t-6 -39.5l-21 -129l-188 30l20 129 q6 35 10.5 61.5t14.5 72.5q-41 -16 -65.5 -25.5t-63.5 -24.5l-125 -43z" />
<glyph unicode="+" d="M133 575v216h367h23t22 -5q-4 14 -4 21.5v23.5v375h235v-375v-23t-4 -22q14 4 21.5 4.5t23.5 0.5h367v-216h-367h-23.5t-21.5 5q4 -14 4 -21.5v-23.5v-377h-235v377v23t4 22q-14 -4 -21.5 -4.5t-23.5 -0.5h-367z" />
<glyph unicode="," horiz-adv-x="729" d="M-86 -256l305 578h426l-452 -578h-279z" />
<glyph unicode="-" horiz-adv-x="780" d="M53 350l49 303h633l-49 -303h-633z" />
<glyph unicode="." horiz-adv-x="573" d="M43 176q0 39 15.5 75t42 62.5t61.5 42t76 15.5q39 0 74.5 -15.5t62 -42t42 -62.5t15.5 -75q0 -41 -15.5 -75.5t-42 -61.5t-62.5 -42t-74 -15q-41 0 -76 15t-61.5 42t-42 61.5t-15.5 75.5z" />
<glyph unicode="/" horiz-adv-x="894" d="M-41 0l743 1364h304l-744 -1364h-303z" />
<glyph unicode="0" d="M92 557q0 186 59.5 353t163.5 278q78 84 187.5 129t232.5 45q106 0 194.5 -35t149.5 -102q68 -74 106 -185.5t38 -236.5q0 -170 -44 -325.5t-128 -278.5q-158 -236 -467 -236q-233 0 -362.5 156.5t-129.5 437.5zM457 481q0 -238 143 -237q113 0 178 153q16 39 31.5 96.5 t27 121t17.5 127t6 118.5q0 100 -37.5 157.5t-103.5 57.5q-55 0 -97 -32.5t-77 -102.5q-39 -82 -63.5 -208t-24.5 -251z" />
<glyph unicode="1" d="M358 1042l80 304h537l-215 -1346h-363l156 981q4 25 6 35t8 31q-23 -4 -34 -4.5t-33 -0.5h-142z" />
<glyph unicode="2" d="M-2 0l682 719q45 49 88 110q23 35 31 59.5t8 55.5q0 53 -38 87t-95 34q-74 0 -116 -47t-58 -152h-350q6 100 33.5 175t82.5 143q147 180 426 180q238 0 371 -133q113 -113 113 -275q0 -61 -19.5 -128.5t-54.5 -127.5q-29 -47 -72 -95t-115 -118l-94 -90 q-18 -18 -31.5 -29.5t-26.5 -21.5t-27.5 -20.5t-35.5 -24.5l5 -8q35 4 58 7t45.5 4t48.5 2t63 1h192l-49 -307h-1065z" />
<glyph unicode="3" d="M92 469h350q4 -111 42 -160t124 -49q76 0 120 44t44 120q0 80 -49 117t-158 37l39 245q16 -2 32.5 -2h31.5q170 0 170 135q0 59 -38 96.5t-102 37.5q-125 0 -155 -140h-342q6 92 46 168t107.5 130.5t157.5 85t197 30.5q100 0 185 -26.5t144.5 -73.5t93 -115t33.5 -148 q0 -117 -62.5 -194.5t-178.5 -110.5l-2 -8q106 -55 151 -120.5t45 -168.5q0 -100 -37 -181t-104.5 -137t-162.5 -87t-214 -31q-158 0 -270.5 56.5t-171.5 166.5q-31 57 -46.5 124t-19.5 159z" />
<glyph unicode="4" d="M18 303l39 246l672 797h436l-112 -703q-4 -25 -6.5 -35t-8.5 -30q23 4 34 4h34h108l-45 -279h-170l-49 -303h-332l39 242q4 25 6.5 35t8.5 30q-23 -4 -34 -4h-34h-586zM397 580l2 -9q27 2 44.5 4.5t35 4.5t35.5 2h47h150l43 237q8 45 16 78t15.5 62.5t17.5 62.5t24 78 l-10 6q-31 -47 -53.5 -81t-44 -63.5t-47 -61.5t-62.5 -77l-71 -88q-25 -29 -40.5 -47t-30.5 -34.5t-30.5 -33t-40.5 -40.5z" />
<glyph unicode="5" d="M57 129l86 311q61 -49 110.5 -82.5t92.5 -54t83 -29t85 -8.5q109 0 174.5 59.5t65.5 157.5q0 96 -66.5 148.5t-189.5 52.5q-66 0 -130.5 -10t-154.5 -35l213 707h729l-53 -299h-453l-26 -82q-10 -29 -16.5 -43.5t-22.5 -42.5l6 -5q35 18 65.5 25.5t67.5 7.5 q88 0 159.5 -28.5t123 -82t79 -128t27.5 -166.5q0 -121 -43 -219.5t-120 -170t-185.5 -110.5t-237.5 -39q-141 0 -253.5 40t-215.5 126z" />
<glyph unicode="6" d="M82 444q0 68 15.5 132.5t49 133t88 146.5t134.5 170q41 49 74.5 87t68.5 75t72 73.5t84 84.5h448l-248 -269q-35 -37 -59.5 -62.5t-47 -48t-49 -45t-63.5 -53.5l6 -8q35 16 58.5 22.5t52.5 6.5q76 0 150.5 -33t132.5 -90q113 -119 112 -297q0 -109 -42 -202 t-116.5 -160.5t-176 -106.5t-220.5 -39q-115 0 -211 36t-165.5 100.5t-108.5 152.5t-39 194zM418 459q0 -84 57 -141.5t141 -57.5q88 0 145.5 57.5t57.5 143.5t-56 141t-142 55t-144.5 -57t-58.5 -141z" />
<glyph unicode="7" d="M39 0l575 844q23 35 39.5 57.5t29.5 41t29.5 38.5t39.5 49l-4 6q-37 -4 -63 -5t-49.5 -2t-51 -1h-68.5h-328l52 318h1116l-877 -1346h-440z" />
<glyph unicode="8" d="M72 369q0 141 92 231t252 109l2 10q-180 96 -180 272q0 82 34.5 151.5t98 120t150.5 78t192 27.5q211 0 329.5 -94t118.5 -260q0 -225 -272 -291v-10q256 -59 256 -307q0 -98 -41 -180.5t-115 -140.5t-178 -91t-231 -33q-117 0 -211.5 28.5t-160 82t-101 128t-35.5 169.5 zM432 395q0 -78 43 -121t119 -43q88 0 140 53.5t52 139.5q0 76 -44.5 122t-118.5 46q-84 0 -137.5 -55.5t-53.5 -141.5zM541 969q0 -63 40 -102.5t103 -39.5q76 0 124 47.5t48 122.5q0 59 -41 97.5t-102 38.5q-74 0 -123 -47.5t-49 -116.5z" />
<glyph unicode="9" d="M152 854q0 113 40.5 207t113.5 161.5t174.5 104.5t221.5 37q117 0 214.5 -34t166 -96.5t106.5 -150.5t38 -194q0 -55 -12.5 -111.5t-38 -116t-66.5 -125t-98 -141.5q-49 -66 -106.5 -133t-112.5 -125q-43 -47 -138 -137h-458l260 272q33 35 57.5 58.5t46 44t46 42 t61.5 50.5l-4 8q-68 -25 -119 -24q-86 0 -159 29.5t-125 82.5t-80.5 127t-28.5 164zM492 870q0 -86 57 -142t143 -56q90 0 145.5 55t55.5 143q0 92 -54.5 146.5t-146.5 54.5q-88 0 -144 -56.5t-56 -144.5z" />
<glyph unicode=":" horiz-adv-x="573" d="M78 176q0 39 15.5 75t42 62.5t61 42t75.5 15.5q39 0 75 -15.5t62.5 -42t42 -62.5t15.5 -75q0 -41 -15.5 -75.5t-42 -61.5t-62.5 -42t-75 -15q-41 0 -75.5 15t-61 42t-42 61.5t-15.5 75.5zM172 733q0 39 15.5 75t42 62.5t61.5 42t76 15.5q39 0 74.5 -15.5t62 -42t42 -62.5 t15.5 -75q0 -41 -15.5 -75.5t-42 -61.5t-62 -42t-74.5 -15q-41 0 -76 15t-61.5 42t-42 61.5t-15.5 75.5z" />
<glyph unicode=";" horiz-adv-x="710" d="M-88 -246l305 568h426l-453 -568h-278zM266 733q0 39 15.5 75t42 62.5t61.5 42t76 15.5q39 0 74.5 -15.5t62.5 -42t42 -62.5t15 -75q0 -41 -15 -75.5t-41 -61.5t-61.5 -42t-76.5 -15t-76 15t-61.5 42t-42 61.5t-15.5 75.5z" />
<glyph unicode="&#x3c;" d="M197 575v213l845 472v-244l-471 -252q-29 -16 -47 -25.5t-34.5 -17.5t-35 -16.5t-44.5 -20.5v-6q27 -12 45 -20.5t34.5 -15.5t35 -17.5t46.5 -24.5l471 -252v-244z" />
<glyph unicode="=" d="M158 379v215h1001v-215h-1001zM158 770v215h1001v-215h-1001z" />
<glyph unicode="&#x3e;" d="M272 104v244l473 252q29 14 48.5 24.5t36 18.5t35 16.5t44.5 18.5v8q-27 10 -45 18.5t-34.5 16.5t-36 17.5t-48.5 25.5l-473 252v244l846 -472v-213z" />
<glyph unicode="?" horiz-adv-x="1050" d="M152 985q6 86 43.5 159t100 125t147.5 80.5t184 28.5q100 0 181 -26.5t138.5 -77.5t88 -123t30.5 -162q0 -98 -32 -177t-91 -126q-47 -39 -101.5 -55.5t-148.5 -22.5l-24 -153h-318l58 356q27 -2 47 -3t32 -1q16 -2 33 -2h27q92 0 142 44t50 124q0 59 -33.5 93t-95.5 34 q-55 0 -83.5 -24.5t-53.5 -90.5h-321zM276 174q0 39 14.5 74t40 60.5t60.5 39.5t74 14t72.5 -15t60.5 -40.5t42 -60.5t15 -72q0 -80 -56 -135t-136 -55q-39 0 -73 14t-59.5 41t-40 60.5t-14.5 74.5z" />
<glyph unicode="@" horiz-adv-x="2379" d="M213 393q0 227 106 428q76 145 190 250t251 172.5t291.5 100t312.5 32.5q129 0 249 -29.5t221 -89t183 -149.5t135 -211q27 -59 44.5 -128.5t17.5 -135.5q0 -94 -17.5 -182.5t-56.5 -164t-102.5 -136t-153.5 -99.5q-61 -27 -126.5 -39t-131.5 -12q-27 0 -70 4t-86 16.5 t-78.5 33t-48.5 50.5q-23 -27 -56.5 -46t-72 -32.5t-77.5 -19.5t-72 -6q-78 0 -131 28.5t-86 76t-47.5 111t-14.5 130.5q0 115 36 221.5t104.5 189.5t166 133t220.5 50q78 0 166 -14.5t163 -38.5l-73 -461q-4 -31 -7 -60.5t-3 -60.5q0 -49 34.5 -70.5t77.5 -21.5 q74 0 126 37t86 92t50.5 122.5t16.5 129.5q0 115 -41 221q-37 92 -96.5 158.5t-134 109.5t-164 62.5t-185.5 19.5q-121 0 -237.5 -29.5t-218 -88t-184.5 -143.5t-138 -195q-33 -66 -51.5 -137.5t-18.5 -145.5q0 -315 159 -478t482 -163q98 0 204 7t204 36l43 -207 q-117 -31 -250 -41t-250 -10q-195 0 -353.5 54t-271 158.5t-174 258.5t-61.5 352zM1030 350q0 -31 4 -57.5t16.5 -47t35 -32.5t57.5 -12q41 0 73.5 18.5t59.5 50.5q0 2 7 12.5t9 12.5l76 434q-18 4 -36.5 8t-37.5 4q-68 0 -118 -39.5t-81.5 -100t-48 -128t-16.5 -123.5z" />
<glyph unicode="A" horiz-adv-x="1411" d="M-90 0l700 1364h455l289 -1364h-375l-51 270h-484l-120 -270h-414zM578 569q51 4 79.5 4h69.5h68h44t40 -4q-8 27 -11.5 40.5t-7.5 41.5l-29 164q-8 49 -13 82t-8 63.5t-4 64.5t-3 81l-12 2q-14 -49 -24.5 -84t-21 -65.5t-24.5 -63.5t-35 -80l-41 -96q-10 -25 -17 -41 t-14.5 -32.5t-15.5 -34t-20 -42.5z" />
<glyph unicode="B" horiz-adv-x="1292" d="M53 0l217 1364h533q43 0 94 -6t92 -17q111 -29 173.5 -109.5t62.5 -199.5q0 -74 -28 -138.5t-79 -107.5q-29 -23 -59.5 -37t-81.5 -30v-8q66 -23 111 -50.5t73.5 -61.5t42 -78t13.5 -99q0 -102 -42 -191.5t-118 -146.5q-57 -45 -137 -64.5t-197 -19.5h-670zM467 274 q23 4 34 4.5t34 0.5h79q66 0 104 8t60 26q59 43 60 121q0 39 -17.5 70t-46.5 47q-16 10 -51 15t-76 5h-127l-39 -231q-4 -25 -6 -35t-8 -31zM555 834q23 4 34 4h34h67q59 0 85 6t48 28q39 39 39 99q0 112 -137 112h-2h-123l-31 -184q-4 -23 -6 -34t-8 -31z" />
<glyph unicode="C" horiz-adv-x="1208" d="M94 618q0 166 58.5 314.5t169.5 259.5q205 207 524 207q264 0 436 -109l-57 -372q-70 72 -165 110.5t-208 38.5q-84 0 -153.5 -31.5t-120 -89t-78 -137.5t-27.5 -176q0 -166 97.5 -256t279.5 -90q78 0 145.5 19.5t139.5 60.5l-56 -344q-47 -29 -131 -44.5t-196 -15.5 q-152 0 -274 46t-207 131t-131 206t-46 272z" />
<glyph unicode="D" horiz-adv-x="1386" d="M55 0l217 1364h498q129 0 237.5 -45t185.5 -127t120 -195.5t43 -251.5q0 -113 -29 -217t-81 -193t-127 -157.5t-165 -111.5q-143 -66 -338 -66h-561zM473 309q18 4 27.5 4h27.5h52q102 0 168.5 20.5t113.5 67.5q59 59 93 155.5t34 211.5q0 141 -74.5 215t-216.5 74h-100 l-111 -682q-4 -23 -6 -34t-8 -32z" />
<glyph unicode="E" horiz-adv-x="1003" d="M57 0l217 1364h791l-49 -313h-416l-27 -150q-4 -23 -6 -34t-8 -33q23 4 33 4h35h354l-53 -303h-412l-27 -160q-4 -23 -6 -34t-8 -32q23 4 34 4h34h350l-49 -313h-787z" />
<glyph unicode="F" horiz-adv-x="946" d="M53 0l217 1364h758l-53 -328h-381l-27 -149q-4 -25 -6 -35t-8 -33q23 4 33 4h35h299l-50 -307h-360l-86 -516h-371z" />
<glyph unicode="G" horiz-adv-x="1523" d="M104 637q0 166 55.5 311.5t159.5 251.5q197 201 537 201q193 0 326 -70.5t243 -230.5l-262 -201q-72 98 -142.5 140t-162.5 42q-72 0 -127 -23.5t-104 -74.5q-68 -70 -104 -162t-36 -196q0 -156 79 -242t220 -86q102 0 170 47t111 145q-23 -2 -39 -3t-30.5 -2t-32 -1 h-41.5h-150l47 293h686q-4 -70 -11 -126t-18.5 -104t-27.5 -92t-37 -89q-92 -193 -258 -296.5t-383 -103.5q-150 0 -272.5 48t-210.5 137.5t-136.5 212t-48.5 274.5z" />
<glyph unicode="H" horiz-adv-x="1476" d="M55 0l217 1364h371l-72 -451q-4 -25 -7 -35l-9 -30q23 4 34 4h34h411l82 512h369l-217 -1364h-369l74 473q4 25 7 35t9 31q-23 -4 -34 -4h-33h-412l-86 -535h-369z" />
<glyph unicode="I" horiz-adv-x="634" d="M57 0l217 1364h371l-219 -1364h-369z" />
<glyph unicode="J" horiz-adv-x="905" d="M-49 109l176 272q55 -88 137 -88q66 0 99.5 54t56.5 183l133 834h369l-156 -975q-35 -211 -150.5 -319.5t-302.5 -108.5q-111 0 -206 38t-156 110z" />
<glyph unicode="K" horiz-adv-x="1386" d="M53 0l217 1364h371l-45 -277q-8 -53 -14.5 -88.5t-13.5 -67.5t-16 -66t-22 -83l11 -4q31 39 51 67.5t41.5 53.5t46.5 52.5t61 66.5l320 346h467l-672 -680l461 -684h-434l-238 385q-25 39 -40 66.5t-28.5 52t-27.5 51.5t-33 66h-8q-2 -43 -4 -74t-5 -58.5t-8.5 -59.5 t-11.5 -77l-57 -352h-369z" />
<glyph unicode="L" horiz-adv-x="946" d="M55 0l217 1364h371l-158 -981q-4 -25 -6 -35t-8 -31q23 4 34 4.5t34 0.5h340l-52 -322h-772z" />
<glyph unicode="M" horiz-adv-x="1855" d="M-47 0l436 1364h408l75 -369q12 -61 20.5 -102t14.5 -78t11.5 -77t11.5 -97l10 -2q20 55 34.5 92t30 71t34 72.5t46.5 94.5l197 395h404l61 -1364h-371l-8 444v228q0 23 4 87t10 140l-10 2q-27 -68 -46 -116t-38.5 -91t-42 -91t-57.5 -118l-244 -485h-188l-94 449 q-16 72 -25.5 122t-17 96t-13.5 95t-14 121h-12q-14 -70 -24.5 -119t-23 -93t-26.5 -93.5t-37 -120.5l-141 -457h-375z" />
<glyph unicode="N" horiz-adv-x="1538" d="M53 0l217 1364h418l225 -582q27 -68 45.5 -116t34 -92t29.5 -92t33 -117l10 2q2 72 5 121t7 95t10.5 97t16.5 125l76 559h370l-221 -1364h-416l-225 575q-27 68 -44 116t-32.5 92t-30 92.5t-32.5 115.5l-12 -2q-2 -72 -4.5 -121t-6.5 -94t-11 -96t-17 -125l-76 -553h-369 z" />
<glyph unicode="O" horiz-adv-x="1628" d="M104 627q0 285 154 487q221 287 651 287q166 0 286 -42t210 -134q92 -94 140 -222.5t48 -277.5q0 -119 -41 -247t-112 -226q-100 -139 -274.5 -216t-391.5 -77q-162 0 -296 62.5t-232 185.5q-74 90 -108 190.5t-34 229.5zM498 635q0 -143 73 -223q45 -49 111 -77t137 -28 q84 0 154.5 33t121 91t79 138t28.5 176q0 156 -82.5 242t-232.5 86q-84 0 -154.5 -32.5t-123 -91t-82 -139.5t-29.5 -175z" />
<glyph unicode="P" horiz-adv-x="1230" d="M61 0l218 1364h421q117 0 214.5 -21.5t166.5 -62.5q76 -45 122 -132t46 -185q0 -123 -36.5 -221.5t-102.5 -159.5q-59 -55 -138 -81t-192 -26h-274l-76 -475h-369zM549 764q20 4 30.5 4h32.5h58q47 0 75.5 5t49.5 18q29 18 45 54t16 79q0 137 -166 137h-88l-39 -232 q-4 -25 -6 -35t-8 -30z" />
<glyph unicode="Q" horiz-adv-x="1619" d="M106 627q0 172 53.5 306t164.5 245q229 225 575 225q158 0 285 -45t217 -129t138 -203t48 -266q0 -123 -33.5 -236.5t-99.5 -206.5q-25 -37 -52.5 -65.5t-80.5 -75.5l231 -317h-393l-108 141q-66 -18 -124.5 -26.5t-131.5 -8.5q-162 0 -282 41t-214 131 q-98 92 -145.5 211t-47.5 279zM487 641q0 -190 129 -276q20 -14 42 -24.5t48.5 -17t60.5 -10.5t79 -6q-18 20 -31.5 34.5t-25 28t-24.5 30t-34 40.5l-106 133h393l43 -63q16 -23 22.5 -35t16.5 -35q57 82 78.5 143.5t21.5 139.5q0 160 -83 249t-230 89q-86 0 -159 -32 t-127 -88t-84 -133t-30 -167z" />
<glyph unicode="R" d="M37 0l219 1364h463q498 0 498 -406q0 -174 -94.5 -283.5t-268.5 -137.5q10 -16 17.5 -26.5t14.5 -21t14 -22.5t18 -31l256 -436h-426l-140 289q-23 47 -38 79.5t-27.5 61.5t-23.5 61.5t-27 79.5l-11 -2q-2 -49 -4 -83.5t-6 -66.5t-9 -67t-13 -86l-43 -266h-369zM526 782 q23 4 34 4h34h65q166 0 166 146q0 119 -135 119h-117l-30 -203q-4 -23 -7.5 -34t-9.5 -32z" />
<glyph unicode="S" horiz-adv-x="1079" d="M-14 188l190 285q74 -94 152 -138t170 -44q63 0 100 33.5t37 87.5q0 41 -35 75.5t-121 79.5q-104 53 -163.5 97.5t-88.5 91.5q-25 39 -39 86t-14 92q0 193 115 315q63 70 161.5 113t194.5 43q135 0 241.5 -41t205.5 -131l-166 -268q-72 72 -126.5 98.5t-125.5 26.5 q-53 0 -85 -29t-32 -76q0 -72 121 -131q63 -35 107 -57.5t63 -32.5q80 -47 127 -131t47 -182q0 -113 -27.5 -192t-93.5 -144q-68 -70 -174 -112t-217 -42q-59 0 -107.5 4t-90.5 14.5t-82 28t-83 43.5q-53 31 -86.5 60.5t-74.5 76.5z" />
<glyph unicode="T" horiz-adv-x="1046" d="M143 1042l52 322h942l-52 -322h-284l-166 -1042h-369l156 981q4 25 6 35t10 31q-23 -4 -34 -4.5t-33 -0.5h-228z" />
<glyph unicode="U" horiz-adv-x="1411" d="M129 428q0 45 4 93t12 95l123 748h373l-127 -799q-4 -23 -5 -47t-1 -47q0 -170 180 -170q59 0 103.5 16.5t76 52.5t52 94t34.5 142l123 758h369l-135 -848q-37 -219 -142 -356q-80 -104 -194.5 -149.5t-300.5 -45.5q-141 0 -254 39t-184 111q-106 109 -107 313z" />
<glyph unicode="V" horiz-adv-x="1372" d="M119 1364h393l121 -582q14 -66 22.5 -109.5t14.5 -82.5t12 -81t12 -103l11 -3q18 57 32.5 98.5t28.5 79t31.5 78.5t44.5 101l266 604h418l-721 -1364h-322z" />
<glyph unicode="W" horiz-adv-x="2021" d="M131 1364h369l53 -514q8 -74 12 -124t7 -95t4.5 -94.5t1.5 -118.5l12 -2q20 66 36.5 111.5t33 88.5t36 89.5t49.5 113.5l242 545h328l33 -520q4 -72 7 -133.5t3 -89.5v-55.5v-49t-1 -52.5t-3 -65l12 -2q25 68 42 115t34.5 91t39 91t52.5 115l260 555h377l-668 -1364h-381 l-32 465q-4 72 -8.5 136.5t-4.5 88.5v74v76t2 75l-12 3q-23 -70 -40 -118t-33.5 -93t-37 -93.5t-51.5 -115.5l-223 -498h-381z" />
<glyph unicode="X" horiz-adv-x="1443" d="M-84 0l619 745l-373 619h422l125 -250q12 -27 21 -43t15.5 -31.5t12.5 -31t16 -39.5h6q12 23 20.5 37t17.5 28.5t19.5 29.5t26.5 40l174 260h465l-542 -662l423 -702h-426l-172 338q-12 27 -20 43t-14.5 29.5t-12.5 28t-14 36.5h-6q-12 -20 -20.5 -33.5t-17.5 -27 t-19.5 -27.5t-24.5 -37l-252 -350h-469z" />
<glyph unicode="Y" horiz-adv-x="1325" d="M119 1364h422l90 -248q14 -41 24.5 -68.5t17.5 -51t15 -50t19 -63.5h6q18 33 32.5 56.5t27.5 45t28.5 46t40.5 61.5l182 272h453l-615 -758l-104 -606h-369l94 610z" />
<glyph unicode="Z" horiz-adv-x="1245" d="M-74 0l625 862q27 37 43 59.5t31.5 42t32 40t40.5 49.5l-2 8q-39 -4 -65.5 -5t-52 -3t-53 -2h-70.5h-271l41 313h1092l-615 -854q-25 -35 -42 -57.5t-32.5 -43t-31.5 -41t-41 -49.5l4 -6q39 2 65.5 4t51 3.5t52.5 1.5h71h372l-51 -322h-1194z" />
<glyph unicode="[" horiz-adv-x="616" d="M-37 -375l289 1805h473l-27 -160h-239l-228 -1422q-4 -23 -7 -34t-9 -31q23 4 34 4h34h178l-27 -162h-471z" />
<glyph unicode="\" horiz-adv-x="894" d="M176 1364h303l307 -1364h-303z" />
<glyph unicode="]" horiz-adv-x="616" d="M-90 -375l27 162h239l227 1419q4 23 6.5 34t8.5 32q-23 -4 -34 -4h-34h-178l27 162h471l-289 -1805h-471z" />
<glyph unicode="^" d="M125 682l426 682h215l426 -682h-238l-221 360q-14 23 -23.5 38.5t-16.5 28.5t-14 27.5t-17 34.5h-7q-10 -20 -17 -34.5t-15.5 -27.5t-16.5 -28.5t-22 -38.5l-222 -360h-237z" />
<glyph unicode="_" horiz-adv-x="999" d="M-129 -324l29 179h999l-29 -179h-999z" />
<glyph unicode="`" horiz-adv-x="0" d="M-219 1374h360l146 -332h-242z" />
<glyph unicode="a" horiz-adv-x="1245" d="M55 414q0 123 44 237.5t122 192.5q137 137 344 137q106 0 175 -38t124 -130l10 2q-6 25 -6 37v18.5t4 18.5l9 57h331l-149 -946h-328l6 45q2 12 17 39q4 6 8 15.5t8 21.5l-8 6q-35 -47 -57.5 -69.5t-51.5 -41.5q-43 -25 -94 -39t-102 -14q-92 0 -167 33t-128 91t-82 141 t-29 186zM406 449q0 -96 48 -148.5t134 -52.5q109 0 171 69.5t62 188.5q0 96 -50 149.5t-138 53.5q-100 0 -163.5 -73t-63.5 -187z" />
<glyph unicode="b" horiz-adv-x="1241" d="M33 0l229 1430h344l-45 -277q-8 -51 -14 -86t-13.5 -65.5t-16.5 -64.5t-21 -81l8 -4q68 68 137.5 99.5t149.5 31.5q88 0 161.5 -34t127 -94t83 -143t29.5 -184q0 -121 -39 -224t-108.5 -179t-163 -120t-201.5 -44q-102 0 -173 41t-132 135l-8 -2q2 -12 3 -23.5t1 -15.5 v-20t-2 -17l-13 -59h-323zM424 442q0 -98 51 -152t139 -54q49 0 91.5 20t72 56t47 84t17.5 106q0 98 -48.5 151.5t-138.5 53.5q-102 0 -166.5 -74t-64.5 -191z" />
<glyph unicode="c" horiz-adv-x="870" d="M57 434q0 233 150 385q78 78 180 122t213 44q84 0 161 -22.5t126 -61.5l-47 -303q-53 59 -99.5 84t-107.5 25q-106 0 -174 -73t-68 -185q0 -98 52.5 -152.5t146.5 -54.5q25 0 46 3t43.5 12t50.5 24.5t63 40.5l-52 -312q-61 -25 -117.5 -35t-123.5 -10q-211 0 -327 123 t-116 346z" />
<glyph unicode="d" d="M59 422q0 119 38 221t105.5 177t160 118t200.5 43q106 0 175 -38t128 -130l8 2q2 49 4.5 82t6.5 64.5t9 66.5t13 86l49 316h340l-227 -1430h-330l9 45q0 6 1 9t4 10.5t9 19.5t16 35l-10 4q-66 -86 -135.5 -123t-165.5 -37q-92 0 -168 33t-129 92t-82 144t-29 190z M408 449q0 -96 48 -149.5t136 -53.5q104 0 168.5 70.5t64.5 187.5q0 96 -50 150.5t-138 54.5q-100 0 -164.5 -73t-64.5 -187z" />
<glyph unicode="e" horiz-adv-x="1165" d="M57 434q0 117 42 217.5t117 174t176.5 115.5t219.5 42q250 0 371 -130t121 -402v-34t-2 -34h-662q-20 0 -28.5 1t-24.5 5q8 -98 51 -143t131 -45q57 0 96.5 24.5t79.5 83.5h345q-18 -78 -66.5 -141.5t-119 -110.5t-158 -72.5t-185.5 -25.5q-115 0 -208 34t-158.5 95.5 t-101.5 149.5t-36 196zM420 590q29 4 44 5t48 1h219q23 0 32 -1t28 -5q-8 78 -52.5 121t-117.5 43q-70 0 -127.5 -47.5t-73.5 -116.5z" />
<glyph unicode="f" horiz-adv-x="743" d="M63 690l43 256h146q12 74 21.5 121t18.5 81t21.5 60.5t30.5 57.5q53 92 132 135t190 43q59 0 103 -7t103 -28l-43 -264q-33 12 -53 16t-39 4q-33 0 -55.5 -11t-39.5 -37.5t-28.5 -69.5t-19.5 -107q20 4 29.5 5t31.5 1h148l-43 -256h-211l-111 -690h-342l103 629 q4 25 6 35t10 30q-23 -4 -34 -4h-34h-84z" />
<glyph unicode="g" horiz-adv-x="1259" d="M37 -51h332q10 -49 54 -77t112 -28q66 0 116.5 30t79.5 81q8 16 13.5 31.5t10.5 36t9 47t8 67.5l-8 4q-72 -80 -136.5 -112.5t-150.5 -32.5q-92 0 -166.5 31.5t-129 89t-84 137.5t-29.5 178q0 115 38.5 215.5t108.5 174t162 116.5t201 43q98 0 169.5 -37t135.5 -119l8 2 q-2 10 -3 18.5t-1 14.5q0 4 1 13.5t3 19.5l10 53h322l-148 -907q-8 -55 -18 -97t-22.5 -74t-29 -57.5t-38.5 -48.5q-142 -149 -451 -149h-4q-293 0 -403 145q-31 41 -46.5 83t-25.5 108zM416 465q0 -86 51 -135t141 -49q47 0 88 18t71 50t47 76t17 95q0 86 -49 136.5 t-133 50.5q-49 0 -92 -18.5t-73.5 -51.5t-49 -77t-18.5 -95z" />
<glyph unicode="h" horiz-adv-x="1216" d="M45 0l229 1430h342l-51 -332q-8 -53 -14 -89t-14.5 -70t-17.5 -69.5t-23 -85.5l10 -4q61 88 143 135.5t174 47.5q68 0 125.5 -21.5t98 -59.5t63.5 -91.5t23 -116.5q0 -51 -19 -168l-82 -506h-340l76 530q2 14 3 29.5t1 22.5q0 47 -29.5 72.5t-83.5 25.5q-76 0 -126 -52.5 t-66 -144.5l-80 -483h-342z" />
<glyph unicode="i" horiz-adv-x="581" d="M43 0l152 946h342l-154 -946h-340zM219 1212q0 78 54.5 130.5t134.5 52.5t131 -52.5t51 -132.5q0 -82 -52.5 -134t-134.5 -52q-78 0 -131 54.5t-53 133.5z" />
<glyph unicode="j" horiz-adv-x="567" d="M-25 -383l213 1329h342l-215 -1329h-340zM213 1212q0 78 54 131.5t134 53.5t131.5 -52.5t51.5 -132.5q0 -82 -52.5 -134t-134.5 -52q-78 0 -131 53.5t-53 132.5z" />
<glyph unicode="k" horiz-adv-x="1165" d="M45 0l229 1430h342l-90 -560q-8 -51 -14 -85.5t-13 -65.5t-15.5 -63.5t-20.5 -77.5l8 -7q27 35 47.5 59.5t38.5 46t41 44t53 55.5l168 170h455l-475 -448l325 -498h-407l-133 221q-25 39 -41.5 66.5t-29.5 52.5t-26.5 52.5t-31.5 66.5l-11 -2q-2 -39 -3 -67t-4 -53.5 t-7 -53t-10 -68.5l-33 -215h-342z" />
<glyph unicode="l" horiz-adv-x="577" d="M43 0l231 1430h340l-231 -1430h-340z" />
<glyph unicode="m" horiz-adv-x="1751" d="M43 0l152 946h333l-10 -67q-2 -8 -4 -15.5t-6 -20t-11.5 -29.5t-19.5 -46l12 -4q122 194 320 194h2q193 0 244 -180l8 -2q49 90 128 136t179 46q66 0 120 -20t94 -55t61.5 -85t21.5 -108q0 -31 -5 -81t-15 -107l-80 -502h-344l86 543q2 10 3 22.5t1 22.5q0 45 -26.5 70.5 t-74.5 25.5q-127 0 -161 -213l-76 -471h-344l86 528q2 14 4 37t2 33q0 41 -24.5 63.5t-67.5 22.5q-72 0 -113 -51t-59 -162l-76 -471h-340z" />
<glyph unicode="n" horiz-adv-x="1220" d="M45 0l152 946h331l-10 -65q-2 -16 -9 -36t-26 -63l11 -4q70 98 142.5 140.5t168.5 42.5q154 0 238.5 -82t84.5 -226q0 -31 -2 -53t-6 -47l-86 -553h-350l80 498q6 45 6 82q0 49 -30.5 77.5t-84.5 28.5q-41 0 -79.5 -19.5t-63.5 -54.5q-33 -47 -61 -229l-64 -383h-342z " />
<glyph unicode="o" horiz-adv-x="1230" d="M61 438q0 117 44.5 217.5t123 173t185 113.5t233.5 41q121 0 218.5 -32.5t165 -93t104 -147.5t36.5 -196q0 -121 -44 -222.5t-122.5 -174t-188 -113.5t-241.5 -41q-139 0 -246.5 46t-172.5 134q-45 59 -70 136t-25 159zM403 428q0 -98 50.5 -154.5t138.5 -56.5 q51 0 95 22.5t77 62.5t51.5 94.5t18.5 115.5q0 96 -49.5 149.5t-137.5 53.5q-111 0 -177.5 -79t-66.5 -208z" />
<glyph unicode="p" horiz-adv-x="1255" d="M-20 -375l213 1321h323l-8 -49q-2 -10 -8 -23.5t-25 -50.5l10 -4q72 90 142.5 127t165.5 37q90 0 164.5 -32.5t128 -93t83 -143.5t29.5 -184q0 -121 -39 -224t-107.5 -180t-161.5 -120t-202 -43q-98 0 -165.5 38t-131.5 130l-8 -2q-2 -41 -3 -69.5t-4 -56.5t-8.5 -58.5 t-11.5 -75.5l-39 -244h-337zM430 442q0 -98 49 -151t139 -53q100 0 166 72.5t66 185.5q0 96 -49 149t-139 53q-104 0 -168 -71.5t-64 -184.5z" />
<glyph unicode="q" horiz-adv-x="1255" d="M49 420q0 123 44 233.5t126 192.5q72 72 154 105.5t186 33.5t180 -40t138 -132l8 2q-2 12 -2 19.5v15.5q0 6 1 16.5t3 20.5l12 59h334l-213 -1321h-342l35 221q6 39 11 67t10 52.5t11.5 51t16.5 63.5l-6 4q-35 -29 -50.5 -40t-31.5 -21q-43 -27 -105.5 -42.5 t-122.5 -15.5q-88 0 -161.5 33t-126 93.5t-81 143t-28.5 185.5zM399 444q0 -98 48.5 -150t134.5 -52q104 0 169.5 73.5t65.5 190.5q0 94 -50 149.5t-138 55.5q-100 0 -165 -75t-65 -192z" />
<glyph unicode="r" horiz-adv-x="804" d="M43 0l152 946h327l-14 -72q-2 -8 -7 -23t-14 -38q-4 -10 -10 -25.5t-12 -35.5l12 -7q43 104 116 158.5t169 54.5q23 0 41 -2t49 -10l-70 -299q-29 4 -44 6t-33 2q-215 0 -250 -211l-72 -444h-340z" />
<glyph unicode="s" horiz-adv-x="899" d="M-29 106l119 248q66 -53 139.5 -85.5t141.5 -37.5h15q78 0 81 60q2 23 -14.5 37t-69.5 39q-61 27 -99 45t-62.5 32.5t-40 25.5t-29.5 26q-59 57 -60 170q0 57 27.5 116.5t70.5 100.5q57 49 135 72.5t189 23.5q23 0 51.5 -4t59 -10.5t59.5 -14.5t53 -16q31 -12 58.5 -27.5 t70.5 -44.5l-118 -235q-51 45 -113 73.5t-109 28.5q-84 0 -86 -57q0 -20 19 -33q6 -4 10 -7t13.5 -7t26.5 -11.5t52 -21.5q74 -33 124 -62.5t80 -64.5t42 -76t12 -96q0 -61 -25.5 -120.5t-72.5 -102.5q-61 -57 -141 -82t-207 -25q-61 0 -140 17.5t-139 46.5 q-33 16 -57.5 32.5t-65.5 46.5z" />
<glyph unicode="t" horiz-adv-x="757" d="M70 690l43 256h155l41 266h338l-33 -204q-4 -23 -6 -34t-8 -32q23 4 33 4h33h133l-43 -256h-191l-112 -690h-338l102 629q4 23 7 33t9 32q-23 -4 -34 -4h-33h-96z" />
<glyph unicode="u" horiz-adv-x="1173" d="M92 297q0 35 4 75t10 87l78 487h344l-84 -536q-4 -18 -5 -39t-1 -31q0 -117 113 -117q141 0 170 178l84 545h340l-86 -549q-14 -80 -43 -152.5t-68 -119.5q-63 -78 -172.5 -122t-243.5 -44q-96 0 -177 25.5t-139 69.5t-91 106.5t-33 136.5z" />
<glyph unicode="v" horiz-adv-x="1144" d="M39 946h354l84 -305q14 -55 23.5 -93t17.5 -71t14.5 -68.5t14.5 -86.5h10q18 49 32.5 81.5t29 63.5t32 65.5t43.5 85.5l168 328h371l-574 -946h-292z" />
<glyph unicode="w" horiz-adv-x="1595" d="M39 946h328l61 -293q10 -49 17.5 -82.5t12.5 -64.5t9 -64.5t8 -83.5l10 -2q14 47 25.5 80t22 61.5t24.5 60.5t35 79l133 309h260l57 -291q10 -51 16.5 -85.5t11.5 -65.5t8 -64.5t7 -81.5l11 -2q14 45 25.5 77t23.5 61.5t25.5 62.5t35.5 80l140 309h335l-483 -946h-264 l-66 317q-10 51 -17 87t-12 68t-9.5 65.5t-8.5 83.5l-10 2q-14 -47 -24.5 -80t-20.5 -63.5t-24.5 -63.5t-34.5 -82l-142 -334h-266z" />
<glyph unicode="x" horiz-adv-x="1222" d="M-104 0l497 498l-299 448h404l98 -178l17.5 -31.5t13.5 -25t12 -22.5t14 -30q10 16 18.5 26.5t15.5 21t16.5 21.5t23.5 28l160 190h422l-455 -471l320 -475h-408l-104 190q-10 18 -16.5 32t-12.5 25t-12.5 23.5t-14.5 30.5q-12 -16 -20 -27.5t-15.5 -21.5t-16.5 -21.5 t-24 -27.5l-170 -203h-464z" />
<glyph unicode="y" horiz-adv-x="1159" d="M20 -375l285 430v11l-260 880h354l84 -385q10 -45 16.5 -76.5t11.5 -59.5t9 -57.5t8 -72.5l9 -2q16 41 27 68.5t23.5 53t27 53.5t36.5 71l217 407h379l-844 -1321h-383z" />
<glyph unicode="z" horiz-adv-x="1013" d="M-70 0l422 532q23 29 38.5 48.5t29.5 35t28.5 32t36.5 40.5l-2 6q-33 -4 -54 -5t-42.5 -2t-45.5 -1h-60h-191l43 260h903l-420 -532q-23 -29 -38 -48.5t-28 -35t-28.5 -31.5t-38.5 -41l2 -6q33 2 55.5 4t44 3t45 1h60.5h240l-43 -260h-957z" />
<glyph unicode="{" horiz-adv-x="657" d="M72 446l26 162q63 16 96 56.5t46 117.5l55 346q25 158 96.5 230t202.5 72h170l-27 -162h-22q-43 0 -80 -8.5t-53 -24.5q-25 -20 -38.5 -51t-23.5 -90l-51 -322q-16 -96 -55 -151.5t-115 -90.5v-6q59 -31 80.5 -71.5t17.5 -114.5q-2 -14 -3 -27.5t-3 -29.5l-51 -322 q-6 -49 -7 -62.5t-1 -25.5q4 -84 143 -84h27l-27 -162h-170q-211 0 -211 189q0 39 2 60.5t6 49.5l56 348q6 33 6 41q12 104 -92 133z" />
<glyph unicode="|" horiz-adv-x="501" d="M8 -410l285 1774h203l-285 -1774h-203z" />
<glyph unicode="}" horiz-adv-x="657" d="M-90 -375l27 162h22q43 0 80 8t53 25q25 20 38 51t24 90l51 322q14 96 53 151t117 90v6q-59 29 -82 72t-17 115q2 12 3.5 26.5t3.5 30.5l53 322q6 51 7 63t1 25q-4 84 -145 84h-27l27 162h172q211 0 211 -189v-31.5t-1 -21.5t-3.5 -22.5t-6.5 -35.5l-55 -348l-6 -41 q-12 -104 92 -133l-24 -162q-66 -16 -97.5 -56t-46.5 -118l-55 -346q-25 -158 -96.5 -229.5t-202.5 -71.5h-170z" />
<glyph unicode="~" d="M117 666q119 188 284 196q31 2 58.5 -2t62.5 -18q47 -16 90 -37l35 -17l35 -14l35 -16q35 -16 76 -26.5t71 -12.5q57 -4 103.5 25.5t93.5 97.5l137 -144q-125 -199 -315 -198q-23 0 -53.5 6t-59.5 16q-6 2 -5 1t-8 3t-36 16.5t-90 43.5q-49 25 -94 39t-76 18 q-59 6 -106.5 -21.5t-100.5 -99.5z" />
<glyph unicode="&#xa1;" horiz-adv-x="620" d="M-27 -389l144 895h350l-143 -895h-351zM156 797q0 80 54 133t134 53t133 -52t53 -134t-53 -135.5t-135 -53.5q-80 0 -133 54.5t-53 134.5z" />
<glyph unicode="&#xa2;" horiz-adv-x="905" d="M72 473q0 131 59 248t164 190q59 43 122.5 62.5t162.5 25.5l30 191h181l-33 -203q25 -6 43 -11t34.5 -11.5t34 -15.5t41.5 -23l-51 -312q-33 37 -58.5 59.5t-48 35t-47 17.5t-55.5 5q-51 0 -94 -19.5t-74.5 -53t-49 -81t-17.5 -102.5q0 -94 57 -156.5t143 -62.5 q98 0 199 72l-51 -303q-23 -10 -40 -16.5t-35.5 -10.5t-40 -6t-52.5 -4l-35 -209h-180l33 213q-41 8 -73 19.5t-57.5 24.5t-47 30.5t-41.5 42.5q-63 72 -93 159.5t-30 204.5z" />
<glyph unicode="&#xa3;" horiz-adv-x="1359" d="M-41 0q10 43 18.5 70.5t15.5 47t16 36t24 36.5q25 35 50.5 60.5t58 45t74.5 35t97 29.5q8 27 13.5 50.5t8.5 48t5 54.5t2 71q-10 -4 -16.5 -5t-18.5 -1h-201l29 194h207q2 129 12.5 205t32.5 137q59 162 195 234q68 35 158.5 54t189.5 19q236 0 356.5 -94t120.5 -276v-37 t-4 -49h-363q0 109 -28.5 152.5t-98.5 43.5q-51 0 -90 -26.5t-59 -75.5q-10 -25 -16.5 -48.5t-10.5 -56t-8 -78t-6 -110.5q12 4 18.5 5t22.5 1h272l-35 -194h-303q-4 -41 -9 -70t-12 -56.5t-17.5 -58.5t-28.5 -74q41 -12 64.5 -20t58.5 -18q47 -14 65.5 -18.5t38.5 -4.5 q61 0 90 88h350q-23 -131 -88 -229q-53 -80 -125.5 -117t-177.5 -37q-125 0 -243 41l-48 16l-49 17l-49 16q-31 10 -57 10q-29 0 -46.5 -13t-33.5 -50h-422z" />
<glyph unicode="&#xa4;" d="M131 315l162 162q-29 53 -41 101.5t-12 103.5q0 53 12 102.5t41 102.5l-162 162l160 159l164 -161q100 53 202 53q55 0 103.5 -12.5t101.5 -40.5l164 161l160 -159l-162 -162q29 -53 41 -102.5t12 -102.5q0 -55 -12 -103.5t-41 -101.5l162 -162l-160 -161l-164 163 q-53 -29 -101 -41t-104 -12q-104 0 -204 53l-162 -161zM438 705q-4 -45 9.5 -87.5t40 -75t64.5 -54t83 -25.5t87 8t74.5 39t54 64.5t28.5 84.5q6 45 -7.5 86t-40 74t-65.5 54.5t-84 27.5t-87 -7t-75 -40t-55.5 -65.5t-26.5 -83.5z" />
<glyph unicode="&#xa5;" horiz-adv-x="1306" d="M119 428l18 111h273h42t31.5 -1t30.5 -2t39 -4l2 5q-14 23 -20.5 33t-18.5 34l-35 68h-323l18 110h129h62.5t72.5 -4q-23 41 -35 64.5t-30 62.5l-217 459h260l219 -485q12 -27 19.5 -43.5t12.5 -30.5t11 -29.5t14 -38.5h6q12 20 21.5 32.5l19 25t19.5 28t28 37.5l390 504 h258l-342 -428q-23 -29 -38.5 -47.5t-29.5 -34.5t-29.5 -32.5t-40.5 -41.5l5 -6q23 2 38 4t29 3t30.5 1h41.5h129l-19 -110h-323l-56 -68q-20 -23 -31.5 -35t-35.5 -32l2 -9q33 4 55.5 6.5t44 3.5t47 1h62.5h215l-19 -111h-411l-68 -428h-229l57 367q4 23 6 34t11 31 q-23 -4 -34 -4h-34h-350z" />
<glyph unicode="&#xa6;" horiz-adv-x="501" d="M8 -410l109 682h205l-111 -682h-203zM182 682l111 682h203l-109 -682h-205z" />
<glyph unicode="&#xa7;" horiz-adv-x="1183" d="M27 37h350q8 -86 41 -123t98 -37q55 0 90 31t35 78q0 57 -37 88q-33 27 -88 45l-51 12l-51 14l-49 15q-139 41 -214 127t-75 207q0 150 110 247q37 31 75 49.5t104 38.5v9q-72 29 -114 84t-42 125q0 78 35 143t97 112.5t149.5 73t191.5 25.5q276 0 405 -189 q31 -47 43.5 -95t14.5 -128h-350q-8 90 -34 123t-91 33q-53 0 -89 -31t-36 -78t32.5 -77.5t106.5 -49.5q72 -18 125 -35.5t93 -35t69.5 -37t54.5 -43.5q88 -88 88 -228q0 -72 -24.5 -134t-69.5 -105q-14 -14 -26.5 -23.5t-29 -18.5t-40 -19.5t-56.5 -22.5q-4 -2 -10 -4 t-14 -6v-4q72 -59 100.5 -107.5t28.5 -114.5q0 -78 -34 -141t-96.5 -108.5t-148.5 -71t-190 -25.5q-141 0 -252 47t-164 133q-29 43 -43 96.5t-18 135.5zM438 514q0 -70 45 -118t111 -48q33 0 62.5 13.5t51 36t34 53t12.5 65.5q0 70 -44 115t-112 45t-114 -47t-46 -115z" />
<glyph unicode="&#xa8;" horiz-adv-x="0" d="M-248 1210q0 66 45.5 111t108.5 45q66 0 110.5 -45t44.5 -109q0 -66 -45 -110.5t-112 -44.5q-61 0 -106.5 45t-45.5 108zM174 1212q0 63 45.5 109.5t108.5 46.5t110 -46t47 -110q0 -66 -46 -110.5t-111 -44.5q-66 0 -110 45t-44 110z" />
<glyph unicode="&#xa9;" horiz-adv-x="1595" d="M106 682q0 147 57.5 277.5t156 227.5t229 153.5t280.5 56.5t282 -56.5t230.5 -152.5t155.5 -227.5t57 -278.5q0 -150 -57 -280t-155.5 -227t-230.5 -153.5t-282 -56.5t-281.5 56.5t-230 153.5t-155 227t-56.5 280zM252 682q0 -121 45 -227.5t124 -186.5t183.5 -126 t224.5 -46q119 0 224.5 46t184.5 126t124 186.5t45 227.5t-45 227.5t-124 186.5t-184.5 126t-224.5 46q-121 0 -225 -46t-183 -126t-124 -186.5t-45 -227.5zM463 690q0 82 31.5 155t88 127t131 84.5t160.5 30.5q31 0 57.5 -3t51.5 -9t51.5 -17t61.5 -28v-244 q-63 57 -104.5 78t-90.5 21q-88 0 -143.5 -57.5t-55.5 -149.5t55.5 -149.5t145.5 -57.5q27 0 48.5 4t43 15.5t46 31t55.5 47.5v-239q-68 -33 -110 -44.5t-97 -11.5q-98 0 -177 30t-134.5 84t-85 131t-29.5 171z" />
<glyph unicode="&#xaa;" horiz-adv-x="833" d="M125 838q0 74 24.5 136t67.5 108t101.5 72t127.5 26q59 0 98.5 -17.5t80.5 -64.5h6q0 4 -1 9t-1 9v17l4 26h219l-96 -573h-215l4 22q2 4 6 12.5t10 18.5q8 14 17 31l-11 6q-27 -53 -76 -83t-110 -30q-117 0 -186.5 76t-69.5 199zM354 856q0 -53 28 -82t77 -29 q66 0 101.5 39t35.5 107q0 53 -29 83t-80 30q-59 0 -96 -41t-37 -107z" />
<glyph unicode="&#xab;" horiz-adv-x="1064" d="M68 512l364 418l170 -144l-262 -294l199 -320l-187 -115zM479 506l369 418l172 -138l-260 -294l198 -316l-186 -123z" />
<glyph unicode="&#xac;" d="M154 793v215h1007v-652h-231v396v23t4 22q-14 -4 -21.5 -4h-23.5h-735z" />
<glyph unicode="&#xad;" horiz-adv-x="780" d="M53 350l49 303h633l-49 -303h-633z" />
<glyph unicode="&#xae;" horiz-adv-x="1595" d="M106 682q0 147 57.5 277.5t156 227.5t229 153.5t280.5 56.5t282 -56.5t230.5 -152.5t155.5 -227.5t57 -278.5q0 -150 -57 -280t-155.5 -227t-230.5 -153.5t-282 -56.5t-281.5 56.5t-230 153.5t-155 227t-56.5 280zM254 682q0 -121 45 -227.5t124 -186.5t183.5 -126 t224.5 -46q119 0 224.5 46t184.5 126t124 186.5t45 227.5t-45 227.5t-124 186.5t-184.5 126t-224.5 46q-121 0 -225 -46t-183 -126t-124 -186.5t-45 -227.5zM530 293v778h336q125 0 201 -67.5t76 -180.5q0 -88 -39 -139t-131 -84q18 -20 27.5 -30.5t25.5 -32.5l186 -244 h-286l-84 123q-16 25 -28.5 43t-22 35.5t-18.5 36t-21 47.5l-11 -3q6 -27 9.5 -45t4.5 -35.5t2 -36t1 -42.5v-123h-228zM756 719q10 4 15 4h20h28q41 0 63.5 21.5t22.5 62.5q0 35 -22.5 56.5t-63.5 21.5h-28h-19.5t-15.5 4q4 -14 4 -21.5v-23.5v-80v-23.5t-4 -21.5z" />
<glyph unicode="&#xaf;" horiz-adv-x="0" d="M-209 1116l25 189h618l-26 -189h-617z" />
<glyph unicode="&#xb0;" horiz-adv-x="714" d="M160 1081q0 61 23.5 114.5t63.5 93.5t93.5 62.5t114.5 22.5t114.5 -22.5t93 -62.5t63.5 -93t24 -115q0 -61 -24 -114.5t-63.5 -93t-93 -62.5t-114.5 -23t-115.5 23t-94.5 62.5t-62.5 93t-22.5 114.5zM289 1081q0 -68 48 -115.5t118 -47.5t118 48t48 115q0 68 -48 116 t-118 48t-118 -48t-48 -116z" />
<glyph unicode="&#xb1;" d="M131 80v215h1002v-215h-1002zM131 748v215h344h23.5t21.5 -5q-4 14 -4 21.5v24.5v288h234v-288v-23.5t-5 -22.5q14 4 21.5 4.5t24.5 0.5h342v-215h-342h-23.5t-22.5 4q4 -14 4.5 -21.5t0.5 -23.5v-285h-234v285v23t4 22q-14 -4 -21 -4h-24h-344z" />
<glyph unicode="&#xb2;" horiz-adv-x="827" d="M68 547l430 434q78 80 77 127q0 29 -21.5 47.5t-53.5 18.5q-45 0 -67.5 -27t-33.5 -90h-229q8 145 97 226t243 81q137 0 221 -67.5t84 -178.5q0 -76 -36 -138t-126 -144l-51 -48q-20 -16 -33.5 -26t-42.5 -25l2 -8q43 8 66.5 10t69.5 2h112l-31 -194h-677z" />
<glyph unicode="&#xb3;" horiz-adv-x="804" d="M119 827h229q2 -66 24.5 -94t71.5 -28q41 0 67 23.5t26 64.5q0 88 -127 86l24 159q20 -2 36.5 -3t33.5 1q72 4 71 74q0 31 -22.5 51.5t-56.5 20.5q-70 0 -90 -82h-222q6 117 94.5 186.5t229.5 69.5q61 0 113.5 -16.5t89.5 -46t58.5 -69.5t21.5 -87q0 -68 -30 -108 t-104 -75v-6q63 -43 85 -76.5t22 -91.5q0 -121 -88 -192.5t-236 -71.5q-307 0 -321 311z" />
<glyph unicode="&#xb4;" horiz-adv-x="0" d="M-119 1044l266 330h398l-408 -330h-256z" />
<glyph unicode="&#xb5;" horiz-adv-x="1173" d="M-27 -410q16 49 27.5 89t21 75t15.5 68t12 69l176 1094h209l-88 -553q-4 -23 -6 -42l-4 -38q-10 -94 32 -147t134 -58q127 -8 210 75t107 241l84 522h211l-158 -985h-202l14 86q2 23 23 76q4 12 10 31.5t14 44.5l-10 4q-55 -123 -123 -185.5t-162 -79.5 q-147 -27 -233 103q-4 4 -7.5 9t-9.5 11l-6 -2q0 -29 -1 -48t-3 -37.5t-4 -40t-8 -52.5l-27 -164q-4 -33 -12 -70.5t-25 -95.5h-211z" />
<glyph unicode="&#xb6;" horiz-adv-x="1198" d="M147 942q0 96 40 180t112 142q66 53 157 76.5t224 23.5h608l-28 -174h-195l-256 -1600h-147l245 1538l6 34.5t9 31.5q-23 -4 -34 -4h-34h-109l-256 -1600h-147l162 1008q4 25 6 35t8 33q-10 -2 -19.5 -3t-15.5 -1q-59 -4 -128.5 16t-116.5 57q-90 72 -91 207z" />
<glyph unicode="&#xb7;" d="M475 682q0 76 53 129t131 53q76 0 129.5 -53t53.5 -129q0 -78 -53.5 -131t-129.5 -53q-78 0 -131 53t-53 131z" />
<glyph unicode="&#xb8;" horiz-adv-x="0" d="M-303 -379l39 113q66 -31 98.5 -42t63.5 -11q35 0 57 13t22 36t-20 35t-55 12q-16 0 -32.5 -2t-45.5 -13l-66 58l138 194h151l-43 -61q-16 -23 -26.5 -34t-32.5 -30l4 -6q35 6 51 8.5t37 2.5q84 0 134 -41t50 -109q0 -92 -68.5 -140t-195.5 -48q-82 0 -143.5 15 t-116.5 50z" />
<glyph unicode="&#xb9;" horiz-adv-x="573" d="M182 1153l51 193h342l-126 -807h-238l88 553q4 23 6 34t8 31q-23 -4 -33 -4h-32h-66z" />
<glyph unicode="&#xba;" horiz-adv-x="827" d="M131 852q0 70 27.5 130t77 104t116 69t146.5 25q154 0 241.5 -77t87.5 -206q0 -74 -27.5 -134.5t-77.5 -104.5t-118.5 -68.5t-150.5 -24.5q-147 0 -234.5 78t-87.5 209zM354 846q0 -53 29 -85t82 -32q59 0 100 47t41 119q1 113 -108 113q-66 0 -105 -45t-39 -117z" />
<glyph unicode="&#xbb;" horiz-adv-x="1060" d="M74 168l245 309l-213 301l170 127l316 -430l-348 -436zM489 190l246 306l-211 301l174 133l308 -436l-344 -437z" />
<glyph unicode="&#xbc;" horiz-adv-x="1609" d="M182 1153l51 193h342l-126 -807h-238l88 553q4 23 6 34t8 31q-23 -4 -33 -4h-32h-66zM201 0l905 1346h176l-907 -1346h-174zM768 178l23 154l413 475h281l-64 -389q-4 -25 -6 -35t-8 -31q18 4 27.5 4h29.5h54l-29 -178h-107l-28 -178h-217l18 117q4 23 7 34t9 31 q-23 -4 -34 -4h-33h-336zM1014 354l4 -8q29 8 46 9t48 1h82l23 125q10 49 19 81t32 85l-11 6q-53 -88 -109 -156.5t-134 -142.5z" />
<glyph unicode="&#xbd;" horiz-adv-x="1667" d="M182 1153l51 193h342l-126 -807h-238l88 553q4 23 6 34t8 31q-23 -4 -33 -4h-32h-66zM201 0l905 1346h176l-907 -1346h-174zM821 0l428 436q41 41 58.5 70t17.5 55q0 29 -21.5 47.5t-54.5 18.5q-45 0 -67.5 -27t-32.5 -88h-229q2 57 12 93t35 73q51 72 122.5 105.5 t180.5 33.5q63 0 116.5 -18.5t93.5 -51t62.5 -76.5t22.5 -96q0 -78 -35 -141t-125 -143l-51 -47q-20 -18 -33.5 -28.5t-42.5 -25.5l2 -8q23 4 38 7.5t29.5 4.5t30 1h37.5h113l-29 -195h-678z" />
<glyph unicode="&#xbe;" horiz-adv-x="1855" d="M135 827h230q2 -66 24.5 -94t71.5 -28q41 0 66.5 23.5t25.5 64.5q0 88 -127 86l25 159q20 -2 36.5 -3t32.5 1q72 4 72 74q0 31 -22.5 51.5t-57.5 20.5q-70 0 -90 -82h-221q6 117 94 186.5t229 69.5q61 0 113.5 -16.5t89.5 -46t58.5 -69.5t21.5 -87q0 -68 -29.5 -108 t-103.5 -75v-6q63 -43 84.5 -76.5t21.5 -91.5q0 -121 -88 -192.5t-235 -71.5q-307 0 -322 311zM442 0l906 1346h176l-906 -1346h-176zM1010 178l24 154l414 475h278l-63 -389q-4 -25 -6 -35t-8 -31q18 4 27.5 4h29.5h53l-28 -178h-105l-29 -178h-219l21 117q4 23 6 34t8 31 q-23 -4 -34 -4h-33h-336zM1257 354l3 -8q31 8 47 9t47 1h82l24 125q8 49 17.5 81t31.5 85l-10 6q-53 -88 -108.5 -156.5t-133.5 -142.5z" />
<glyph unicode="&#xbf;" horiz-adv-x="1050" d="M-14 -16q0 182 120 284q27 23 53.5 38.5t56.5 26.5t66.5 18t84.5 14l26 151h312l-56 -352q-35 4 -50 4h-48q-20 0 -55 -5t-58 -9q-59 -16 -92 -56.5t-33 -95.5q0 -59 35 -95t90 -36q53 0 87 25.5t57 85.5h317q-4 -84 -40 -155t-98.5 -121t-147.5 -77.5t-185 -27.5 q-211 0 -326.5 99t-115.5 284zM410 799q0 78 52 131t130 53q39 0 74.5 -14.5t61.5 -40t41 -59t15 -72.5q0 -80 -55 -134.5t-137 -54.5q-78 0 -130 54.5t-52 136.5z" />
<glyph unicode="&#xc0;" horiz-adv-x="1411" d="M-90 0l700 1364h455l289 -1364h-375l-51 270h-484l-120 -270h-414zM524 1739h361l145 -332h-242zM578 569q51 4 79.5 4h69.5h68h44t40 -4q-8 27 -11.5 40.5t-7.5 41.5l-29 164q-8 49 -13 82t-8 63.5t-4 64.5t-3 81l-12 2q-14 -49 -24.5 -84t-21 -65.5t-24.5 -63.5 t-35 -80l-41 -96q-10 -25 -17 -41t-14.5 -32.5t-15.5 -34t-20 -42.5z" />
<glyph unicode="&#xc1;" horiz-adv-x="1411" d="M-90 0l700 1364h455l289 -1364h-375l-51 270h-484l-120 -270h-414zM578 569q51 4 79.5 4h69.5h68h44t40 -4q-8 27 -11.5 40.5t-7.5 41.5l-29 164q-8 49 -13 82t-8 63.5t-4 64.5t-3 81l-12 2q-14 -49 -24.5 -84t-21 -65.5t-24.5 -63.5t-35 -80l-41 -96q-10 -25 -17 -41 t-14.5 -32.5t-15.5 -34t-20 -42.5zM625 1409l266 330h397l-407 -330h-256z" />
<glyph unicode="&#xc2;" horiz-adv-x="1411" d="M-90 0l700 1364h455l289 -1364h-375l-51 270h-484l-120 -270h-414zM446 1411l291 305h250l203 -305h-229l-89 111q-8 10 -11 16t-9 16q-6 -10 -10 -14t-15 -14l-131 -115h-250zM578 569q51 4 79.5 4h69.5h68h44t40 -4q-8 27 -11.5 40.5t-7.5 41.5l-29 164q-8 49 -13 82 t-8 63.5t-4 64.5t-3 81l-12 2q-14 -49 -24.5 -84t-21 -65.5t-24.5 -63.5t-35 -80l-41 -96q-10 -25 -17 -41t-14.5 -32.5t-15.5 -34t-20 -42.5z" />
<glyph unicode="&#xc3;" horiz-adv-x="1411" d="M-90 0l700 1364h455l289 -1364h-375l-51 270h-484l-120 -270h-414zM510 1626q74 55 125 76.5t108 21.5q25 0 49.5 -8t84.5 -41q57 -27 81 -26q18 0 32 2t28 9t31.5 19.5t44.5 32.5l75 -160q-72 -57 -123 -79.5t-102 -18.5q-29 2 -55.5 10.5t-71.5 30.5q-39 20 -61.5 27.5 t-44.5 7.5q-18 0 -31.5 -2t-28 -9.5t-32 -20.5t-41.5 -34zM578 569q51 4 79.5 4h69.5h68h44t40 -4q-8 27 -11.5 40.5t-7.5 41.5l-29 164q-8 49 -13 82t-8 63.5t-4 64.5t-3 81l-12 2q-14 -49 -24.5 -84t-21 -65.5t-24.5 -63.5t-35 -80l-41 -96q-10 -25 -17 -41t-14.5 -32.5 t-15.5 -34t-20 -42.5z" />
<glyph unicode="&#xc4;" horiz-adv-x="1411" d="M-90 0l700 1364h455l289 -1364h-375l-51 270h-484l-120 -270h-414zM496 1575q0 66 45 111t108 45q66 0 111 -44.5t45 -109.5q0 -66 -45 -111t-113 -45q-63 0 -107 45t-44 109zM578 569q51 4 79.5 4h69.5h68h44t40 -4q-8 27 -11.5 40.5t-7.5 41.5l-29 164q-8 49 -13 82 t-8 63.5t-4 64.5t-3 81l-12 2q-14 -49 -24.5 -84t-21 -65.5t-24.5 -63.5t-35 -80l-41 -96q-10 -25 -17 -41t-14.5 -32.5t-15.5 -34t-20 -42.5zM920 1577q0 63 45 109.5t108 46.5t110.5 -46.5t47.5 -109.5q0 -66 -46 -111t-112 -45t-109.5 45t-43.5 111z" />
<glyph unicode="&#xc5;" horiz-adv-x="1411" d="M-90 0l700 1364h455l289 -1364h-375l-51 270h-484l-120 -270h-414zM578 569q51 4 79.5 4h69.5h68h44t40 -4q-8 27 -11.5 40.5t-7.5 41.5l-29 164q-8 49 -13 82t-8 63.5t-4 64.5t-3 81l-12 2q-14 -49 -24.5 -84t-21 -65.5t-24.5 -63.5t-35 -80l-41 -96q-10 -25 -17 -41 t-14.5 -32.5t-15.5 -34t-20 -42.5zM645 1604q0 45 17.5 85t47 69.5t68.5 47t84 17.5t85 -17.5t68.5 -47t46 -69.5t17.5 -85t-17.5 -84t-46 -69t-68.5 -47.5t-85 -17.5t-85 17.5t-68.5 47.5t-46 69t-17.5 84zM786 1604q0 -31 22.5 -53.5t53.5 -22.5t53.5 22.5t22.5 53.5 q0 33 -22.5 55t-53.5 22t-53.5 -22.5t-22.5 -54.5z" />
<glyph unicode="&#xc6;" horiz-adv-x="1812" d="M-84 0l692 1364h867l61 -322h-313h-47.5t-42.5 5q8 -29 11 -42.5t11 -46.5l25 -135h403l57 -293h-307h-27.5h-20.5t-19.5 1t-24.5 4q10 -29 13 -43.5t10 -47.5l30 -151h398l57 -293h-764l-49 264h-487l-125 -264h-408zM582 563q53 4 81.5 4h69.5h64h46t42 -4 q-8 27 -11.5 39t-9.5 47l-26 144q-8 43 -13.5 74.5t-8.5 60t-5 59.5t-4 76h-10q-14 -45 -24.5 -77t-22 -60.5t-24.5 -59t-34 -73.5l-33 -74q-12 -25 -20 -42.5t-16.5 -34.5t-18.5 -35.5t-22 -43.5z" />
<glyph unicode="&#xc7;" horiz-adv-x="1208" d="M94 618q0 166 58.5 314.5t169.5 259.5q205 207 524 207q264 0 436 -109l-57 -372q-70 72 -165 110.5t-208 38.5q-84 0 -153.5 -31.5t-120 -89t-78 -137.5t-27.5 -176q0 -166 97.5 -256t279.5 -90q78 0 145.5 19.5t139.5 60.5l-56 -344q-47 -29 -131 -44.5t-196 -15.5 q-33 0 -63 3t-64 7l-17 -20q-16 -23 -25.5 -34t-31.5 -30l4 -6q33 6 50.5 8.5t35.5 2.5q84 0 134 -41t50 -109q0 -92 -68.5 -140t-193.5 -48q-84 0 -144.5 15t-115.5 50l37 113q66 -31 98.5 -42t63.5 -11q35 0 57.5 13t22.5 36t-20.5 35t-55.5 12q-16 0 -31.5 -2t-44.5 -13 l-65 58l129 184q-193 66 -296.5 225.5t-103.5 388.5z" />
<glyph unicode="&#xc8;" horiz-adv-x="1003" d="M57 0l217 1364h791l-49 -313h-416l-27 -150q-4 -23 -6 -34t-8 -33q23 4 33 4h35h354l-53 -303h-412l-27 -160q-4 -23 -6 -34t-8 -32q23 4 34 4h34h350l-49 -313h-787zM297 1739h360l148 -332h-244z" />
<glyph unicode="&#xc9;" horiz-adv-x="1003" d="M57 0l217 1364h791l-49 -313h-416l-27 -150q-4 -23 -6 -34t-8 -33q23 4 33 4h35h354l-53 -303h-412l-27 -160q-4 -23 -6 -34t-8 -32q23 4 34 4h34h350l-49 -313h-787zM397 1409l267 330h397l-408 -330h-256z" />
<glyph unicode="&#xca;" horiz-adv-x="1003" d="M57 0l217 1364h791l-49 -313h-416l-27 -150q-4 -23 -6 -34t-8 -33q23 4 33 4h35h354l-53 -303h-412l-27 -160q-4 -23 -6 -34t-8 -32q23 4 34 4h34h350l-49 -313h-787zM219 1411l291 305h250l205 -305h-232l-86 111q-10 10 -13 16t-7 16q-8 -10 -12.5 -14t-14.5 -14 l-131 -115h-250z" />
<glyph unicode="&#xcb;" horiz-adv-x="1003" d="M57 0l217 1364h791l-49 -313h-416l-27 -150q-4 -23 -6 -34t-8 -33q23 4 33 4h35h354l-53 -303h-412l-27 -160q-4 -23 -6 -34t-8 -32q23 4 34 4h34h350l-49 -313h-787zM270 1575q0 66 45.5 111t108.5 45q66 0 111 -45.5t45 -108.5q0 -66 -45.5 -111t-112.5 -45 q-63 0 -107.5 45t-44.5 109zM692 1577q0 63 45.5 109.5t108.5 46.5t110.5 -46.5t47.5 -109.5q0 -66 -46.5 -111t-111.5 -45q-66 0 -110 45t-44 111z" />
<glyph unicode="&#xcc;" horiz-adv-x="634" d="M57 0l217 1364h371l-219 -1364h-369zM113 1739h358l147 -332h-241z" />
<glyph unicode="&#xcd;" horiz-adv-x="634" d="M57 0l217 1364h371l-219 -1364h-369zM211 1409l266 330h397l-405 -330h-258z" />
<glyph unicode="&#xce;" horiz-adv-x="634" d="M33 1411l291 305h249l205 -305h-231l-86 111q-10 10 -13.5 16t-7.5 16q-8 -10 -12 -14l-14 -14l-131 -115h-250zM57 0l217 1364h371l-219 -1364h-369z" />
<glyph unicode="&#xcf;" horiz-adv-x="634" d="M57 0l217 1364h371l-219 -1364h-369zM84 1575q0 66 45.5 111t108.5 45q66 0 110.5 -44.5t44.5 -109.5q0 -66 -45 -111t-112 -45q-61 0 -106.5 45t-45.5 109zM506 1577q0 63 45 109.5t108 46.5t110.5 -46.5t47.5 -109.5q0 -66 -46 -111t-112 -45t-109.5 45t-43.5 111z" />
<glyph unicode="&#xd0;" horiz-adv-x="1400" d="M49 608l27 164h119l94 592h495q129 0 237.5 -45t185.5 -127t120 -195.5t43 -251.5q0 -113 -28.5 -217t-81 -193t-126 -157.5t-165.5 -111.5q-143 -66 -336 -66h-563l88 547q4 25 6 35t8 30q-20 -4 -30.5 -4h-32.5h-60zM489 309q16 4 25.5 4h30.5h51q102 0 167.5 20.5 t113.5 67.5q59 59 93 155.5t34 211.5q0 141 -75 215t-216 74h-101l-34 -223q-4 -23 -6.5 -34.5t-10.5 -31.5q23 4 34 4h34h100l-27 -164h-161l-37 -233q-4 -23 -6 -34t-9 -32z" />
<glyph unicode="&#xd1;" horiz-adv-x="1538" d="M53 0l217 1364h418l225 -582q27 -68 45.5 -116t34 -92t29.5 -92t33 -117l10 2q2 72 5 121t7 95t10.5 97t16.5 125l76 559h370l-221 -1364h-416l-225 575q-27 68 -44 116t-32.5 92t-30 92.5t-32.5 115.5l-12 -2q-2 -72 -4.5 -121t-6.5 -94t-11 -96t-17 -125l-76 -553h-369 zM549 1626q76 55 127 76.5t106 21.5q12 0 23.5 -2t26 -7t35 -14t51.5 -26q53 -27 79 -26q18 0 31.5 2t29 9t33 19.5t44.5 32.5l73 -160q-72 -57 -123 -79.5t-102 -18.5q-29 2 -55.5 10.5t-69.5 30.5q-39 20 -61.5 27.5t-44.5 7.5q-18 0 -31.5 -2t-28 -9.5t-32 -20.5 t-42.5 -34z" />
<glyph unicode="&#xd2;" horiz-adv-x="1628" d="M104 627q0 285 154 487q221 287 651 287q166 0 286 -42t210 -134q92 -94 140 -222.5t48 -277.5q0 -119 -41 -247t-112 -226q-100 -139 -274.5 -216t-391.5 -77q-162 0 -296 62.5t-232 185.5q-74 90 -108 190.5t-34 229.5zM498 635q0 -143 73 -223q45 -49 111 -77t137 -28 q84 0 154.5 33t121 91t79 138t28.5 176q0 156 -82.5 242t-232.5 86q-84 0 -154.5 -32.5t-123 -91t-82 -139.5t-29.5 -175zM610 1739h359l147 -332h-242z" />
<glyph unicode="&#xd3;" horiz-adv-x="1628" d="M104 627q0 285 154 487q221 287 651 287q166 0 286 -42t210 -134q92 -94 140 -222.5t48 -277.5q0 -119 -41 -247t-112 -226q-100 -139 -274.5 -216t-391.5 -77q-162 0 -296 62.5t-232 185.5q-74 90 -108 190.5t-34 229.5zM498 635q0 -143 73 -223q45 -49 111 -77t137 -28 q84 0 154.5 33t121 91t79 138t28.5 176q0 156 -82.5 242t-232.5 86q-84 0 -154.5 -32.5t-123 -91t-82 -139.5t-29.5 -175zM709 1409l266 330h399l-407 -330h-258z" />
<glyph unicode="&#xd4;" horiz-adv-x="1628" d="M104 627q0 285 154 487q221 287 651 287q166 0 286 -42t210 -134q92 -94 140 -222.5t48 -277.5q0 -119 -41 -247t-112 -226q-100 -139 -274.5 -216t-391.5 -77q-162 0 -296 62.5t-232 185.5q-74 90 -108 190.5t-34 229.5zM498 635q0 -143 73 -223q45 -49 111 -77t137 -28 q84 0 154.5 33t121 91t79 138t28.5 176q0 156 -82.5 242t-232.5 86q-84 0 -154.5 -32.5t-123 -91t-82 -139.5t-29.5 -175zM530 1411l293 305h250l203 -305h-229l-89 111q-10 10 -13 16t-7 16q-8 -10 -12 -14t-15 -14l-131 -115h-250z" />
<glyph unicode="&#xd5;" horiz-adv-x="1628" d="M104 627q0 285 154 487q221 287 651 287q166 0 286 -42t210 -134q92 -94 140 -222.5t48 -277.5q0 -119 -41 -247t-112 -226q-100 -139 -274.5 -216t-391.5 -77q-162 0 -296 62.5t-232 185.5q-74 90 -108 190.5t-34 229.5zM498 635q0 -143 73 -223q45 -49 111 -77t137 -28 q84 0 154.5 33t121 91t79 138t28.5 176q0 156 -82.5 242t-232.5 86q-84 0 -154.5 -32.5t-123 -91t-82 -139.5t-29.5 -175zM594 1626q76 55 127 76.5t106 21.5q12 0 23.5 -2t26 -7t35 -14t51.5 -26q53 -27 79 -26q18 0 31.5 2t29 9t33 19.5t44.5 32.5l73 -160 q-72 -57 -123 -79.5t-102 -18.5q-29 2 -55.5 10.5t-69.5 30.5q-39 20 -61.5 27.5t-44.5 7.5q-37 0 -60.5 -11.5t-72.5 -54.5z" />
<glyph unicode="&#xd6;" horiz-adv-x="1628" d="M104 627q0 285 154 487q221 287 651 287q166 0 286 -42t210 -134q92 -94 140 -222.5t48 -277.5q0 -119 -41 -247t-112 -226q-100 -139 -274.5 -216t-391.5 -77q-162 0 -296 62.5t-232 185.5q-74 90 -108 190.5t-34 229.5zM498 635q0 -143 73 -223q45 -49 111 -77t137 -28 q84 0 154.5 33t121 91t79 138t28.5 176q0 156 -82.5 242t-232.5 86q-84 0 -154.5 -32.5t-123 -91t-82 -139.5t-29.5 -175zM582 1575q0 66 45 111t108 45q66 0 111 -44.5t45 -109.5q0 -66 -45 -111t-113 -45q-63 0 -107 45t-44 109zM1004 1577q0 63 45 109.5t108 46.5 t110.5 -46.5t47.5 -109.5q0 -66 -46 -111t-112 -45t-109.5 45t-43.5 111z" />
<glyph unicode="&#xd7;" d="M176 358l293 295q12 10 18.5 15.5t18.5 13.5q-12 8 -18.5 12t-18.5 17l-293 295l160 159l323 -323l322 323l162 -159l-324 -324l324 -324l-162 -159l-322 323l-323 -323z" />
<glyph unicode="&#xd8;" horiz-adv-x="1634" d="M106 627q0 338 216 557q111 111 254 164t333 53q260 0 426 -115l133 137l107 -94l-135 -141q156 -184 155 -463q0 -74 -15 -149.5t-44 -148.5t-69 -136.5t-87 -110.5q-104 -104 -261.5 -162.5t-342.5 -58.5q-117 0 -212 30.5t-193 96.5l-146 -149l-98 100l141 145 q-86 100 -124 203.5t-38 241.5zM500 637q0 -29 2 -51.5t6 -43t12 -41t21 -46.5q12 16 21 27.5t18.5 22.5t20.5 22.5t28 27.5l387 401q25 25 36 35t33 27q-47 29 -94 42t-102 13q-84 0 -154.5 -32.5t-123 -91t-82 -138.5t-29.5 -174zM631 365q57 -35 97 -46.5t95 -11.5 q82 0 153 33t121 91t78.5 138t28.5 176q0 47 -7 84t-28 91q-14 -18 -24 -30.5t-20.5 -24t-22.5 -25t-31 -31.5l-369 -379q-25 -27 -36 -37t-35 -28z" />
<glyph unicode="&#xd9;" horiz-adv-x="1411" d="M129 428q0 45 4 93t12 95l123 748h373l-127 -799q-4 -23 -5 -47t-1 -47q0 -170 180 -170q59 0 103.5 16.5t76 52.5t52 94t34.5 142l123 758h369l-135 -848q-37 -219 -142 -356q-80 -104 -194.5 -149.5t-300.5 -45.5q-141 0 -254 39t-184 111q-106 109 -107 313zM502 1739 h358l148 -332h-242z" />
<glyph unicode="&#xda;" horiz-adv-x="1411" d="M129 428q0 45 4 93t12 95l123 748h373l-127 -799q-4 -23 -5 -47t-1 -47q0 -170 180 -170q59 0 103.5 16.5t76 52.5t52 94t34.5 142l123 758h369l-135 -848q-37 -219 -142 -356q-80 -104 -194.5 -149.5t-300.5 -45.5q-141 0 -254 39t-184 111q-106 109 -107 313zM602 1409 l264 330h400l-408 -330h-256z" />
<glyph unicode="&#xdb;" horiz-adv-x="1411" d="M129 428q0 45 4 93t12 95l123 748h373l-127 -799q-4 -23 -5 -47t-1 -47q0 -170 180 -170q59 0 103.5 16.5t76 52.5t52 94t34.5 142l123 758h369l-135 -848q-37 -219 -142 -356q-80 -104 -194.5 -149.5t-300.5 -45.5q-141 0 -254 39t-184 111q-106 109 -107 313zM422 1411 l293 305h250l202 -305h-229l-88 111q-10 10 -13 16l-8 16q-8 -10 -12 -14l-14 -14l-131 -115h-250z" />
<glyph unicode="&#xdc;" horiz-adv-x="1411" d="M129 428q0 45 4 93t12 95l123 748h373l-127 -799q-4 -23 -5 -47t-1 -47q0 -170 180 -170q59 0 103.5 16.5t76 52.5t52 94t34.5 142l123 758h369l-135 -848q-37 -219 -142 -356q-80 -104 -194.5 -149.5t-300.5 -45.5q-141 0 -254 39t-184 111q-106 109 -107 313zM473 1575 q0 66 45.5 111t108.5 45q66 0 110.5 -44.5t44.5 -109.5q0 -66 -45 -111t-112 -45q-61 0 -106.5 45t-45.5 109zM895 1577q0 63 45.5 109.5t108.5 46.5t110 -46.5t47 -109.5q0 -66 -46 -111t-111 -45q-66 0 -110 45t-44 111z" />
<glyph unicode="&#xdd;" horiz-adv-x="1325" d="M119 1364h422l90 -248q14 -41 24.5 -68.5t17.5 -51t15 -50t19 -63.5h6q18 33 32.5 56.5t27.5 45t28.5 46t40.5 61.5l182 272h453l-615 -758l-104 -606h-369l94 610zM557 1409l266 330h398l-408 -330h-256z" />
<glyph unicode="&#xde;" horiz-adv-x="1230" d="M86 0l219 1364h230l-27 -170q-4 -23 -7 -34t-9 -32q23 4 34 4.5t33 0.5h199q102 0 169.5 -11.5t110.5 -34.5q61 -33 102.5 -92t51.5 -133q18 -129 -30 -252t-150 -202q-68 -53 -154 -78t-203 -25h-290l-50 -305h-229zM387 475q23 4 34 4h34h190q82 0 132 14.5t91 49.5 q53 43 78 109.5t19 140.5q-8 84 -62.5 120.5t-171.5 36.5h-264l-66 -409q-4 -23 -6 -34t-8 -32z" />
<glyph unicode="&#xdf;" horiz-adv-x="1255" d="M37 0l147 924q12 80 24.5 137t27 99t31 73t38.5 57q139 162 422 162q217 0 343 -97.5t126 -267.5q0 -121 -66.5 -199.5t-195.5 -107.5l-2 -8q70 -33 105.5 -55.5t64.5 -50.5q37 -41 58.5 -98.5t21.5 -118.5q0 -106 -32 -193.5t-90.5 -150t-140 -96.5t-182.5 -34 q-68 0 -126 8.5t-115 26.5l39 242q39 -8 62.5 -11t45.5 -3q86 0 135 45q31 33 49.5 84t18.5 106q0 92 -52.5 151.5t-138.5 59.5h-51l29 217h41q209 0 209 170q0 61 -41 96t-113 35q-94 0 -145 -74q-23 -35 -45 -133q-8 -35 -12.5 -63.5t-8.5 -48.5l-141 -883h-340z" />
<glyph unicode="&#xe0;" horiz-adv-x="1245" d="M55 414q0 123 44 237.5t122 192.5q137 137 344 137q106 0 175 -38t124 -130l10 2q-6 25 -6 37v18.5t4 18.5l9 57h331l-149 -946h-328l6 45q2 12 17 39q4 6 8 15.5t8 21.5l-8 6q-35 -47 -57.5 -69.5t-51.5 -41.5q-43 -25 -94 -39t-102 -14q-92 0 -167 33t-128 91t-82 141 t-29 186zM403 1374h361l145 -332h-241zM406 449q0 -96 48 -148.5t134 -52.5q109 0 171 69.5t62 188.5q0 96 -50 149.5t-138 53.5q-100 0 -163.5 -73t-63.5 -187z" />
<glyph unicode="&#xe1;" horiz-adv-x="1245" d="M55 414q0 123 44 237.5t122 192.5q137 137 344 137q106 0 175 -38t124 -130l10 2q-6 25 -6 37v18.5t4 18.5l9 57h331l-149 -946h-328l6 45q2 12 17 39q4 6 8 15.5t8 21.5l-8 6q-35 -47 -57.5 -69.5t-51.5 -41.5q-43 -25 -94 -39t-102 -14q-92 0 -167 33t-128 91t-82 141 t-29 186zM406 449q0 -96 48 -148.5t134 -52.5q109 0 171 69.5t62 188.5q0 96 -50 149.5t-138 53.5q-100 0 -163.5 -73t-63.5 -187zM502 1044l266 330h397l-407 -330h-256z" />
<glyph unicode="&#xe2;" horiz-adv-x="1245" d="M55 414q0 123 44 237.5t122 192.5q137 137 344 137q106 0 175 -38t124 -130l10 2q-6 25 -6 37v18.5t4 18.5l9 57h331l-149 -946h-328l6 45q2 12 17 39q4 6 8 15.5t8 21.5l-8 6q-35 -47 -57.5 -69.5t-51.5 -41.5q-43 -25 -94 -39t-102 -14q-92 0 -167 33t-128 91t-82 141 t-29 186zM324 1047l290 305h250l205 -305h-231l-86 110q-10 10 -13.5 16.5t-7.5 16.5q-8 -10 -12 -14.5t-14 -14.5l-132 -114h-249zM406 449q0 -96 48 -148.5t134 -52.5q109 0 171 69.5t62 188.5q0 96 -50 149.5t-138 53.5q-100 0 -163.5 -73t-63.5 -187z" />
<glyph unicode="&#xe3;" horiz-adv-x="1245" d="M55 414q0 123 44 237.5t122 192.5q137 137 344 137q106 0 175 -38t124 -130l10 2q-6 25 -6 37v18.5t4 18.5l9 57h331l-149 -946h-328l6 45q2 12 17 39q4 6 8 15.5t8 21.5l-8 6q-35 -47 -57.5 -69.5t-51.5 -41.5q-43 -25 -94 -39t-102 -14q-92 0 -167 33t-128 91t-82 141 t-29 186zM387 1264q74 53 126 74.5t108 21.5q12 0 23 -2t25.5 -7t34 -14.5t50.5 -25.5q57 -27 82 -27q18 0 31.5 2t28.5 9.5t32.5 19.5t44.5 33l74 -158q-70 -57 -122.5 -81t-103.5 -19q-29 2 -55.5 10t-69.5 30q-39 20 -62.5 27.5t-43.5 7.5q-18 0 -32.5 -2t-28 -9 t-31 -20.5t-41.5 -33.5zM406 449q0 -96 48 -148.5t134 -52.5q109 0 171 69.5t62 188.5q0 96 -50 149.5t-138 53.5q-100 0 -163.5 -73t-63.5 -187z" />
<glyph unicode="&#xe4;" horiz-adv-x="1245" d="M55 414q0 123 44 237.5t122 192.5q137 137 344 137q106 0 175 -38t124 -130l10 2q-6 25 -6 37v18.5t4 18.5l9 57h331l-149 -946h-328l6 45q2 12 17 39q4 6 8 15.5t8 21.5l-8 6q-35 -47 -57.5 -69.5t-51.5 -41.5q-43 -25 -94 -39t-102 -14q-92 0 -167 33t-128 91t-82 141 t-29 186zM375 1210q0 66 45 111t108 45q66 0 111 -45t45 -109q0 -66 -45 -110.5t-113 -44.5q-61 0 -106 45t-45 108zM406 449q0 -96 48 -148.5t134 -52.5q109 0 171 69.5t62 188.5q0 96 -50 149.5t-138 53.5q-100 0 -163.5 -73t-63.5 -187zM797 1212q0 63 45 109.5t108 46.5 t110.5 -46t47.5 -110q0 -66 -46 -110.5t-112 -44.5t-109.5 45t-43.5 110z" />
<glyph unicode="&#xe5;" horiz-adv-x="1245" d="M55 414q0 123 44 237.5t122 192.5q137 137 344 137q106 0 175 -38t124 -130l10 2q-6 25 -6 37v18.5t4 18.5l9 57h331l-149 -946h-328l6 45q2 12 17 39q4 6 8 15.5t8 21.5l-8 6q-35 -47 -57.5 -69.5t-51.5 -41.5q-43 -25 -94 -39t-102 -14q-92 0 -167 33t-128 91t-82 141 t-29 186zM406 449q0 -96 48 -148.5t134 -52.5q109 0 171 69.5t62 188.5q0 96 -50 149.5t-138 53.5q-100 0 -163.5 -73t-63.5 -187zM522 1239q0 45 17.5 85t47 69.5t68.5 47t84 17.5t85 -17.5t69 -47t46 -69.5t17 -85t-17 -84t-46 -68.5t-69 -47t-85 -17.5t-84 17.5t-68.5 47 t-47 68.5t-17.5 84zM664 1239q0 -31 21.5 -53.5t53.5 -22.5q31 0 53.5 22.5t22.5 53.5q0 33 -22.5 55.5t-53.5 22.5q-33 0 -54 -22.5t-21 -55.5z" />
<glyph unicode="&#xe6;" horiz-adv-x="1894" d="M31 293q0 70 21.5 129t60.5 100q61 59 155 93t201 34q109 0 178.5 -31.5t114.5 -101.5l6 2q4 29 4 39v33q0 78 -58.5 124t-158.5 46q-96 0 -187.5 -31t-168.5 -90l45 307q88 29 172 41t182 12q68 0 120 -8t95 -27.5t78 -50t65 -73.5q78 74 168 108.5t203 34.5 q236 0 367 -135t131 -377q0 -23 -1 -41t-5 -47h-676q-16 0 -23.5 1t-21.5 5q6 -190 184 -190q61 0 100 24.5t74 83.5h346q-10 -53 -25.5 -90t-43.5 -70q-72 -88 -194 -137t-263 -49q-287 0 -424 193q-133 -190 -401 -191q-201 0 -310.5 86t-109.5 244zM352 322 q0 -57 57.5 -93t147.5 -36q86 0 137 34.5t51 94.5q0 53 -56 87.5t-142 34.5t-140.5 -34.5t-54.5 -87.5zM1130 590q31 4 46.5 5t50.5 1h219q23 0 32 -1t29 -5q-10 80 -53 123t-117 43q-72 0 -131 -47t-76 -119z" />
<glyph unicode="&#xe7;" horiz-adv-x="870" d="M57 434q0 233 150 385q78 78 180 122t213 44q84 0 161 -22.5t126 -61.5l-47 -303q-53 59 -99.5 84t-107.5 25q-106 0 -174 -73t-68 -185q0 -98 52.5 -152.5t146.5 -54.5q25 0 46 3t43.5 12t50.5 24.5t63 40.5l-52 -312q-61 -25 -117.5 -35t-123.5 -10h-24.5t-24.5 2 l-11 -14q-16 -23 -26.5 -34t-32.5 -30l4 -6q35 6 51.5 8.5t36.5 2.5q84 0 134 -41t50 -109q0 -92 -68.5 -140t-195.5 -48q-82 0 -143.5 15t-116.5 50l37 113q66 -31 99.5 -42t64.5 -11q35 0 57.5 13t22.5 36t-20.5 35t-55.5 12q-16 0 -32.5 -2t-45.5 -13l-65 58l122 174 q-123 45 -191.5 160.5t-68.5 279.5z" />
<glyph unicode="&#xe8;" horiz-adv-x="1165" d="M57 434q0 117 42 217.5t117 174t176.5 115.5t219.5 42q250 0 371 -130t121 -402v-34t-2 -34h-662q-20 0 -28.5 1t-24.5 5q8 -98 51 -143t131 -45q57 0 96.5 24.5t79.5 83.5h345q-18 -78 -66.5 -141.5t-119 -110.5t-158 -72.5t-185.5 -25.5q-115 0 -208 34t-158.5 95.5 t-101.5 149.5t-36 196zM362 1374h361l145 -332h-241zM420 590q29 4 44 5t48 1h219q23 0 32 -1t28 -5q-8 78 -52.5 121t-117.5 43q-70 0 -127.5 -47.5t-73.5 -116.5z" />
<glyph unicode="&#xe9;" horiz-adv-x="1165" d="M57 434q0 117 42 217.5t117 174t176.5 115.5t219.5 42q250 0 371 -130t121 -402v-34t-2 -34h-662q-20 0 -28.5 1t-24.5 5q8 -98 51 -143t131 -45q57 0 96.5 24.5t79.5 83.5h345q-18 -78 -66.5 -141.5t-119 -110.5t-158 -72.5t-185.5 -25.5q-115 0 -208 34t-158.5 95.5 t-101.5 149.5t-36 196zM420 590q29 4 44 5t48 1h219q23 0 32 -1t28 -5q-8 78 -52.5 121t-117.5 43q-70 0 -127.5 -47.5t-73.5 -116.5zM463 1044l266 330h397l-407 -330h-256z" />
<glyph unicode="&#xea;" horiz-adv-x="1165" d="M57 434q0 117 42 217.5t117 174t176.5 115.5t219.5 42q250 0 371 -130t121 -402v-34t-2 -34h-662q-20 0 -28.5 1t-24.5 5q8 -98 51 -143t131 -45q57 0 96.5 24.5t79.5 83.5h345q-18 -78 -66.5 -141.5t-119 -110.5t-158 -72.5t-185.5 -25.5q-115 0 -208 34t-158.5 95.5 t-101.5 149.5t-36 196zM285 1047l290 305h250l205 -305h-231l-86 110q-10 10 -13.5 16.5t-7.5 16.5q-8 -10 -12 -14.5t-14 -14.5l-131 -114h-250zM420 590q29 4 44 5t48 1h219q23 0 32 -1t28 -5q-8 78 -52.5 121t-117.5 43q-70 0 -127.5 -47.5t-73.5 -116.5z" />
<glyph unicode="&#xeb;" horiz-adv-x="1165" d="M57 434q0 117 42 217.5t117 174t176.5 115.5t219.5 42q250 0 371 -130t121 -402v-34t-2 -34h-662q-20 0 -28.5 1t-24.5 5q8 -98 51 -143t131 -45q57 0 96.5 24.5t79.5 83.5h345q-18 -78 -66.5 -141.5t-119 -110.5t-158 -72.5t-185.5 -25.5q-115 0 -208 34t-158.5 95.5 t-101.5 149.5t-36 196zM336 1210q0 66 45 111t108 45q66 0 111 -45t45 -109q0 -66 -45 -110.5t-113 -44.5q-61 0 -106 45t-45 108zM420 590q29 4 44 5t48 1h219q23 0 32 -1t28 -5q-8 78 -52.5 121t-117.5 43q-70 0 -127.5 -47.5t-73.5 -116.5zM758 1212q0 63 45 109.5 t108 46.5t110.5 -46t47.5 -110q0 -66 -46 -110.5t-112 -44.5t-109.5 45t-43.5 110z" />
<glyph unicode="&#xec;" horiz-adv-x="581" d="M41 0l152 946h346l-152 -946h-346zM72 1374h360l146 -332h-242z" />
<glyph unicode="&#xed;" horiz-adv-x="581" d="M41 0l152 946h346l-152 -946h-346zM172 1044l266 330h398l-408 -330h-256z" />
<glyph unicode="&#xee;" horiz-adv-x="581" d="M-8 1047l291 305h249l205 -305h-231l-86 110q-10 10 -13.5 16.5t-7.5 16.5q-8 -10 -12 -14.5t-14 -14.5l-131 -114h-250zM41 0l152 946h346l-152 -946h-346z" />
<glyph unicode="&#xef;" horiz-adv-x="581" d="M41 0l152 946h346l-152 -946h-346zM43 1210q0 66 45.5 111t108.5 45q66 0 110.5 -45t44.5 -109q0 -66 -45 -110.5t-112 -44.5q-61 0 -106.5 45t-45.5 108zM467 1212q0 63 45.5 109.5t108.5 46.5t110 -46t47 -110q0 -66 -46 -110.5t-111 -44.5q-66 0 -110 45t-44 110z" />
<glyph unicode="&#xf0;" horiz-adv-x="1230" d="M154 365q0 123 42 242.5t113 205.5q145 170 355 170q37 0 64.5 -4t51 -13.5t46 -26.5t48.5 -44l9 8q-4 6 -5 7t-5.5 8.5t-14.5 22.5t-31 48q-29 47 -88 93t-127 77l-278 -158l-43 78l104 60q37 23 59.5 31t65.5 22v8l-6 2h-4l-3 1t-11.5 3t-26.5 8q-23 6 -40 10.5 t-34.5 7.5t-39 7t-50.5 8l78 117q43 -6 74.5 -11t61.5 -11.5t63.5 -16.5t81.5 -25l272 154l43 -80l-102 -57q-37 -20 -56.5 -28.5t-56.5 -24.5v-7q326 -152 326 -567q0 -166 -38 -299t-111 -226t-176 -142.5t-233 -49.5q-184 0 -281 100.5t-97 291.5zM369 348 q0 -106 50 -164.5t142 -58.5q162 0 244 178q31 66 47 147.5t16 167.5q0 109 -50 166.5t-142 57.5q-141 0 -224 -133.5t-83 -360.5z" />
<glyph unicode="&#xf1;" horiz-adv-x="1220" d="M45 0l152 946h331l-10 -65q-2 -16 -9 -36t-26 -63l11 -4q70 98 142.5 140.5t168.5 42.5q154 0 238.5 -82t84.5 -226q0 -31 -2 -53t-6 -47l-86 -553h-350l80 498q6 45 6 82q0 49 -30.5 77.5t-84.5 28.5q-41 0 -79.5 -19.5t-63.5 -54.5q-33 -47 -61 -229l-64 -383h-342z M375 1264q74 53 126 74.5t107 21.5q12 0 23.5 -2t26 -7t34 -14.5t49.5 -25.5q57 -27 82 -27q18 0 31.5 2t29 9.5t33 19.5t44.5 33l73 -158q-70 -57 -122 -81t-103 -19q-29 2 -55.5 10t-69.5 30q-39 20 -62.5 27.5t-43.5 7.5q-18 0 -33 -2t-28 -9t-30.5 -20.5t-42.5 -33.5z " />
<glyph unicode="&#xf2;" horiz-adv-x="1230" d="M61 438q0 117 44.5 217.5t123 173t185 113.5t233.5 41q121 0 218.5 -32.5t165 -93t104 -147.5t36.5 -196q0 -121 -44 -222.5t-122.5 -174t-188 -113.5t-241.5 -41q-139 0 -246.5 46t-172.5 134q-45 59 -70 136t-25 159zM395 1374h361l145 -332h-242zM403 428 q0 -98 50.5 -154.5t138.5 -56.5q51 0 95 22.5t77 62.5t51.5 94.5t18.5 115.5q0 96 -49.5 149.5t-137.5 53.5q-111 0 -177.5 -79t-66.5 -208z" />
<glyph unicode="&#xf3;" horiz-adv-x="1230" d="M61 438q0 117 44.5 217.5t123 173t185 113.5t233.5 41q121 0 218.5 -32.5t165 -93t104 -147.5t36.5 -196q0 -121 -44 -222.5t-122.5 -174t-188 -113.5t-241.5 -41q-139 0 -246.5 46t-172.5 134q-45 59 -70 136t-25 159zM403 428q0 -98 50.5 -154.5t138.5 -56.5 q51 0 95 22.5t77 62.5t51.5 94.5t18.5 115.5q0 96 -49.5 149.5t-137.5 53.5q-111 0 -177.5 -79t-66.5 -208zM496 1044l266 330h397l-407 -330h-256z" />
<glyph unicode="&#xf4;" horiz-adv-x="1230" d="M61 438q0 117 44.5 217.5t123 173t185 113.5t233.5 41q121 0 218.5 -32.5t165 -93t104 -147.5t36.5 -196q0 -121 -44 -222.5t-122.5 -174t-188 -113.5t-241.5 -41q-139 0 -246.5 46t-172.5 134q-45 59 -70 136t-25 159zM317 1047l291 305h250l205 -305h-232l-86 110 q-10 10 -13 16.5t-7 16.5q-8 -10 -12 -14.5t-15 -14.5l-131 -114h-250zM403 428q0 -98 50.5 -154.5t138.5 -56.5q51 0 95 22.5t77 62.5t51.5 94.5t18.5 115.5q0 96 -49.5 149.5t-137.5 53.5q-111 0 -177.5 -79t-66.5 -208z" />
<glyph unicode="&#xf5;" horiz-adv-x="1230" d="M61 438q0 117 44.5 217.5t123 173t185 113.5t233.5 41q121 0 218.5 -32.5t165 -93t104 -147.5t36.5 -196q0 -121 -44 -222.5t-122.5 -174t-188 -113.5t-241.5 -41q-139 0 -246.5 46t-172.5 134q-45 59 -70 136t-25 159zM381 1264q74 53 126 74.5t107 21.5q12 0 23.5 -2 t26 -7t34 -14.5t50.5 -25.5q57 -27 81 -27q18 0 31.5 2t29 9.5t33 19.5t44.5 33l73 -158q-70 -57 -122 -81t-103 -19q-29 2 -55.5 10t-69.5 30q-39 20 -62.5 27.5t-43.5 7.5q-18 0 -32.5 -2t-28 -9t-31 -20.5t-41.5 -33.5zM403 428q0 -98 50.5 -154.5t138.5 -56.5 q51 0 95 22.5t77 62.5t51.5 94.5t18.5 115.5q0 96 -49.5 149.5t-137.5 53.5q-111 0 -177.5 -79t-66.5 -208z" />
<glyph unicode="&#xf6;" horiz-adv-x="1230" d="M61 438q0 117 44.5 217.5t123 173t185 113.5t233.5 41q121 0 218.5 -32.5t165 -93t104 -147.5t36.5 -196q0 -121 -44 -222.5t-122.5 -174t-188 -113.5t-241.5 -41q-139 0 -246.5 46t-172.5 134q-45 59 -70 136t-25 159zM369 1210q0 66 45 111t108 45q66 0 111 -45 t45 -109q0 -66 -45 -110.5t-113 -44.5q-61 0 -106 45t-45 108zM403 428q0 -98 50.5 -154.5t138.5 -56.5q51 0 95 22.5t77 62.5t51.5 94.5t18.5 115.5q0 96 -49.5 149.5t-137.5 53.5q-111 0 -177.5 -79t-66.5 -208zM791 1212q0 63 45 109.5t108 46.5t110.5 -46t47.5 -110 q0 -66 -46 -110.5t-112 -44.5t-109.5 45t-43.5 110z" />
<glyph unicode="&#xf7;" d="M158 575v216h1001v-216h-1001zM516 301q0 59 42 100t101 41t100.5 -41t41.5 -100t-42 -101t-102 -42q-59 0 -100 42t-41 101zM516 1063q0 59 42 100t101 41t100.5 -41t41.5 -100t-42 -101t-102 -42q-59 0 -100 42t-41 101z" />
<glyph unicode="&#xf8;" horiz-adv-x="1220" d="M59 432q0 121 43 222.5t122 174t187.5 113.5t239.5 41q176 0 295 -74l115 117l80 -80l-74 -78q-10 -12 -16.5 -17t-18.5 -13q66 -53 100.5 -138.5t34.5 -189.5q0 -111 -45 -215.5t-123 -177.5q-158 -152 -430 -152q-47 0 -87 4t-75.5 13.5t-69.5 25t-71 37.5l-110 -111 l-78 78l102 101q-63 70 -92 144.5t-29 174.5zM399 424q0 -23 2 -39t13 -37q14 18 25.5 31.5t21.5 25t22.5 24.5t32.5 34l146 151q27 27 41 41.5t42 38.5q-29 12 -49 17.5t-49 5.5q-115 0 -181.5 -79t-66.5 -214zM467 264q35 -29 58.5 -37t58.5 -8q53 0 100 23.5t81 64.5 t51.5 95.5t14.5 115.5q-2 29 -6 47.5t-18 46.5q-12 -16 -22.5 -27.5t-19.5 -22.5t-20.5 -22.5l-27.5 -27.5l-189 -195q-20 -23 -29.5 -29.5t-31.5 -23.5z" />
<glyph unicode="&#xf9;" horiz-adv-x="1173" d="M92 297q0 35 4 75t10 87l78 487h344l-84 -536q-4 -18 -5 -39t-1 -31q0 -117 113 -117q141 0 170 178l84 545h340l-86 -549q-14 -80 -43 -152.5t-68 -119.5q-63 -78 -172.5 -122t-243.5 -44q-96 0 -177 25.5t-139 69.5t-91 106.5t-33 136.5zM369 1374h360l145 -332h-241z " />
<glyph unicode="&#xfa;" horiz-adv-x="1173" d="M92 297q0 35 4 75t10 87l78 487h344l-84 -536q-4 -18 -5 -39t-1 -31q0 -117 113 -117q141 0 170 178l84 545h340l-86 -549q-14 -80 -43 -152.5t-68 -119.5q-63 -78 -172.5 -122t-243.5 -44q-96 0 -177 25.5t-139 69.5t-91 106.5t-33 136.5zM469 1044l266 330h398 l-408 -330h-256z" />
<glyph unicode="&#xfb;" horiz-adv-x="1173" d="M92 297q0 35 4 75t10 87l78 487h344l-84 -536q-4 -18 -5 -39t-1 -31q0 -117 113 -117q141 0 170 178l84 545h340l-86 -549q-14 -80 -43 -152.5t-68 -119.5q-63 -78 -172.5 -122t-243.5 -44q-96 0 -177 25.5t-139 69.5t-91 106.5t-33 136.5zM289 1047l291 305h249 l205 -305h-231l-86 110q-10 10 -13.5 16.5t-7.5 16.5q-8 -10 -12 -14.5t-14 -14.5l-131 -114h-250z" />
<glyph unicode="&#xfc;" horiz-adv-x="1173" d="M92 297q0 35 4 75t10 87l78 487h344l-84 -536q-4 -18 -5 -39t-1 -31q0 -117 113 -117q141 0 170 178l84 545h340l-86 -549q-14 -80 -43 -152.5t-68 -119.5q-63 -78 -172.5 -122t-243.5 -44q-96 0 -177 25.5t-139 69.5t-91 106.5t-33 136.5zM340 1210q0 66 45.5 111 t108.5 45q66 0 110.5 -45t44.5 -109q0 -66 -45 -110.5t-112 -44.5q-61 0 -106.5 45t-45.5 108zM762 1212q0 63 45 109.5t108 46.5t110.5 -46t47.5 -110q0 -66 -46 -110.5t-112 -44.5t-109.5 45t-43.5 110z" />
<glyph unicode="&#xfd;" horiz-adv-x="1159" d="M20 -375l285 430v11l-260 880h354l84 -385q10 -45 16.5 -76.5t11.5 -59.5t9 -57.5t8 -72.5l9 -2q16 41 27 68.5t23.5 53t27 53.5t36.5 71l217 407h379l-844 -1321h-383zM461 1044l266 330h397l-407 -330h-256z" />
<glyph unicode="&#xfe;" horiz-adv-x="1255" d="M78 -336l272 1700h213l-43 -264q-8 -49 -14 -87t-15.5 -75t-20.5 -77t-28 -95l13 -4q55 133 158.5 200.5t226.5 53.5q125 -14 196.5 -100.5t77.5 -229.5q2 -61 -4 -125.5t-19.5 -127t-36 -120t-48.5 -104.5q-115 -201 -322 -229q-86 -10 -153.5 16.5t-110.5 85.5 q-16 25 -26.5 51.5t-24.5 81.5l-13 -2q0 -49 -2 -86t-4 -68.5t-7 -66.5t-11 -80l-41 -248h-213zM408 354q0 -104 49 -160.5t137 -56.5q164 0 242 180q29 66 44 146t15 168q0 106 -48 163.5t-136 57.5q-166 0 -246 -184q-57 -139 -57 -314z" />
<glyph unicode="&#xff;" horiz-adv-x="1159" d="M20 -375l285 430v11l-260 880h354l84 -385q10 -45 16.5 -76.5t11.5 -59.5t9 -57.5t8 -72.5l9 -2q16 41 27 68.5t23.5 53t27 53.5t36.5 71l217 407h379l-844 -1321h-383zM334 1210q0 66 45 111t108 45q66 0 111 -45t45 -109q0 -66 -45 -110.5t-113 -44.5q-61 0 -106 45 t-45 108zM756 1212q0 63 45 109.5t108 46.5t110.5 -46t47.5 -110q0 -66 -46 -110.5t-112 -44.5t-109.5 45t-43.5 110z" />
<glyph unicode="&#x152;" horiz-adv-x="2039" d="M104 618q0 178 55.5 322.5t158 247t247 158t322.5 55.5q133 0 227 -34t182 -114l7 2q-2 10 -2.5 17.5t-0.5 11.5q0 2 1.5 9t3.5 20l10 51h782l-49 -313h-418l-24 -152q-4 -23 -6.5 -34t-8.5 -31q23 4 34 4h34h354l-49 -303h-414l-26 -160q-4 -23 -7.5 -33t-9.5 -33 q23 4 33 4h35h354l-51 -313h-782l8 47q2 23 24 64l-8 6q-160 -152 -393 -152q-256 0 -426 168q-96 92 -146.5 218t-50.5 267zM494 631q0 -72 24.5 -131.5t67.5 -101.5t103.5 -65.5t133.5 -23.5q66 0 134.5 29t115.5 74q59 59 95 150t36 190q0 147 -86 234t-231 87 q-84 0 -156 -33.5t-125 -93t-82.5 -140.5t-29.5 -175z" />
<glyph unicode="&#x153;" horiz-adv-x="1912" d="M63 434q0 119 44.5 219.5t122 174t184 114.5t233.5 41q223 0 361 -113q139 115 344 115q109 0 201 -33.5t157 -99.5q37 -37 63.5 -77t42 -90t22.5 -112.5t7 -142.5v-23.5t-2 -23.5h-676q-16 0 -22 1t-19 5q0 -53 8.5 -81.5t26.5 -51.5q23 -27 62 -42t82 -15 q63 0 104 25.5t70 82.5h348q-10 -53 -28.5 -92t-49.5 -74q-76 -84 -195.5 -132t-253.5 -48q-109 0 -198.5 28.5t-155.5 82.5q-154 -109 -371 -109q-117 0 -211 34t-160.5 95.5t-103.5 148.5t-37 193zM403 430q0 -98 50.5 -154.5t136.5 -56.5q51 0 96 22.5t77 62.5t50 94.5 t18 117.5q0 98 -46 149.5t-134 51.5q-111 0 -179.5 -79t-68.5 -208zM1153 590q29 4 44 5t48 1h244q14 0 20.5 -1t20.5 -5q-2 74 -49 120t-119 46q-74 0 -133.5 -47t-75.5 -119z" />
<glyph unicode="&#x178;" horiz-adv-x="1325" d="M119 1364h422l90 -248q14 -41 24.5 -68.5t17.5 -51t15 -50t19 -63.5h6q18 33 32.5 56.5t27.5 45t28.5 46t40.5 61.5l182 272h453l-615 -758l-104 -606h-369l94 610zM430 1575q0 66 45.5 111t108.5 45q66 0 110.5 -45.5t44.5 -108.5q0 -66 -45 -111t-112 -45 q-63 0 -107.5 45t-44.5 109zM852 1577q0 66 45.5 111t108.5 45t110 -46.5t47 -109.5q0 -66 -46 -111t-111 -45q-66 0 -110 45t-44 111z" />
<glyph unicode="&#x2c6;" horiz-adv-x="0" d="M-299 1047l291 305h250l204 -305h-231l-86 110q-10 10 -13 16.5t-7 16.5q-8 -10 -12.5 -14.5l-14.5 -14.5l-131 -114h-250z" />
<glyph unicode="&#x2dc;" horiz-adv-x="0" d="M-236 1264q74 53 126.5 74.5t107.5 21.5q12 0 23.5 -2t25.5 -7t33.5 -14.5t50.5 -25.5q57 -27 82 -27q18 0 31.5 2t29 9.5t33 19.5t43.5 33l74 -158q-70 -57 -122 -81t-103 -19q-29 2 -55.5 10t-69.5 30q-39 20 -62.5 27.5t-44.5 7.5q-18 0 -32.5 -2t-27.5 -9 t-30.5 -20.5t-42.5 -33.5z" />
<glyph unicode="&#x2000;" horiz-adv-x="911" />
<glyph unicode="&#x2001;" horiz-adv-x="1823" />
<glyph unicode="&#x2002;" horiz-adv-x="911" />
<glyph unicode="&#x2003;" horiz-adv-x="1823" />
<glyph unicode="&#x2004;" horiz-adv-x="607" />
<glyph unicode="&#x2005;" horiz-adv-x="455" />
<glyph unicode="&#x2006;" horiz-adv-x="303" />
<glyph unicode="&#x2007;" horiz-adv-x="303" />
<glyph unicode="&#x2008;" horiz-adv-x="227" />
<glyph unicode="&#x2009;" horiz-adv-x="364" />
<glyph unicode="&#x200a;" horiz-adv-x="101" />
<glyph unicode="&#x2010;" horiz-adv-x="780" d="M53 350l49 303h633l-49 -303h-633z" />
<glyph unicode="&#x2011;" horiz-adv-x="780" d="M53 350l49 303h633l-49 -303h-633z" />
<glyph unicode="&#x2012;" horiz-adv-x="780" d="M53 350l49 303h633l-49 -303h-633z" />
<glyph unicode="&#x2013;" horiz-adv-x="1273" d="M53 381l39 242h1131l-37 -242h-1133z" />
<glyph unicode="&#x2014;" horiz-adv-x="1642" d="M51 381l41 242h1499l-37 -242h-1503z" />
<glyph unicode="&#x2018;" horiz-adv-x="768" d="M133 852l447 578h270l-301 -578h-416z" />
<glyph unicode="&#x2019;" horiz-adv-x="761" d="M139 852l291 578h412l-430 -578h-273z" />
<glyph unicode="&#x201a;" horiz-adv-x="729" d="M-113 -256l332 578h426l-479 -578h-279z" />
<glyph unicode="&#x201c;" horiz-adv-x="1226" d="M111 852l450 578h273l-297 -578h-426zM616 852l451 578h272l-297 -578h-426z" />
<glyph unicode="&#x201d;" horiz-adv-x="1220" d="M111 852l297 578h426l-451 -578h-272zM616 852l297 578h426l-450 -578h-273z" />
<glyph unicode="&#x201e;" horiz-adv-x="1241" d="M-70 -256l297 578h426l-450 -578h-273zM436 -256l297 578h426l-450 -578h-273z" />
<glyph unicode="&#x2022;" d="M276 682q0 78 30 147.5t82 122t121.5 82t147.5 29.5t147.5 -29.5t122 -82t82 -121t29.5 -148.5q0 -78 -29.5 -147.5t-82 -122t-122 -82t-147.5 -29.5t-147.5 29.5t-121.5 82t-82 122t-30 147.5z" />
<glyph unicode="&#x2026;" horiz-adv-x="1609" d="M47 172q0 82 56.5 138.5t140.5 56.5q39 0 72.5 -14.5t59 -41t40 -61.5t14.5 -76q0 -84 -53 -137t-139 -53t-138.5 51t-52.5 137zM565 172q0 82 56.5 138.5t138.5 56.5t135 -55.5t53 -137.5q0 -86 -53 -138t-139 -52t-138.5 51t-52.5 137zM1083 172q0 82 56.5 138.5 t140.5 56.5q39 0 72.5 -14.5t59.5 -41t40 -61.5t14 -76q0 -86 -53 -138t-139 -52t-138.5 51t-52.5 137z" />
<glyph unicode="&#x202f;" horiz-adv-x="364" />
<glyph unicode="&#x2039;" horiz-adv-x="643" d="M70 512l364 418l170 -144l-266 -294l197 -320l-181 -115z" />
<glyph unicode="&#x203a;" horiz-adv-x="649" d="M78 190l244 306l-211 301l176 133l307 -436l-346 -437z" />
<glyph unicode="&#x205f;" horiz-adv-x="455" />
<glyph unicode="&#x20ac;" d="M51 444l76 158h123q0 14 1 26.5t3 26.5q4 16 5 31.5t5 30.5h-180l78 157h151q47 111 120 201t163 153.5t193.5 98.5t214.5 35q80 0 144 -19.5t136 -48.5l-51 -413q-47 70 -108.5 107.5t-151.5 37.5q-84 0 -158 -39t-131 -113h367l-93 -157h-348q-4 -14 -6 -28.5t-6 -31.5 q-2 -14 -2 -27.5v-27.5h295l-80 -158h-178q41 -72 105.5 -108.5t146.5 -36.5q86 0 156.5 38t136.5 103l-50 -411q-78 -25 -147.5 -45.5t-146.5 -20.5q-109 0 -205.5 34t-172 97.5t-126.5 151.5t-70 198h-209z" />
<glyph unicode="&#x2122;" horiz-adv-x="1761" d="M143 1169l31 195h567l-32 -195h-166l-94 -581h-230l84 522q4 23 6 33t8 31q-23 -2 -33 -3.5t-32 -1.5h-109zM666 586l254 778h249l35 -184q6 -35 11.5 -60.5t8.5 -48t4 -48.5t3 -62h10q12 37 21.5 61.5t18.5 48t20.5 48t27.5 61.5l90 184h246l43 -778h-231l-4 223 q-2 23 -2.5 46.5t-0.5 45.5v45q0 14 4.5 53t8.5 84l-10 4q-16 -47 -28.5 -79.5t-25 -62.5t-28 -61.5t-35.5 -74.5l-109 -223h-121l-45 219q-8 43 -13 74.5t-9 60.5t-7 59.5t-5 75.5h-11q-8 -45 -14 -76.5t-13.5 -60.5t-16.5 -59.5t-23 -73.5l-70 -219h-233z" />
<glyph unicode="&#x25fc;" horiz-adv-x="942" d="M0 0v942h942v-942h-942z" />
<glyph unicode="&#xfb01;" horiz-adv-x="1226" d="M61 690l41 256h146l12 76q12 78 40 146.5t67 115.5q61 78 166.5 120t232.5 42q190 0 307 -82t127 -225q4 -51 -2 -84l-4 -25h-346l2 10q4 14 4 23.5v28.5q0 90 -104 90q-123 0 -152 -166l-6 -35q-2 -14 -4 -20.5t-6 -18.5q23 4 34 4h33h115l-41 -256h-176l-111 -690h-340 l101 629q4 23 6 34t10 31q-23 -4 -34 -4h-34h-84zM686 0l152 946h342l-154 -946h-340z" />
<glyph unicode="&#xfb02;" horiz-adv-x="1220" d="M61 690l41 256h146l12 74q12 78 40 146.5t67 115.5q61 78 166.5 120t232.5 42q190 0 307 -82t127 -225q2 -23 2 -43.5t-4 -40.5l-172 -1053h-340l164 1038q4 14 4 24.5v29.5q0 88 -104 88q-123 0 -152 -166l-6 -33q-2 -14 -4 -20.5t-6 -18.5q23 4 34 4h33h115l-41 -256 h-176l-111 -690h-340l101 629q4 23 6 34t10 31q-23 -4 -34 -4h-34h-84z" />
</font>
</defs>
</svg>
